SplineFontDB: 3.0
FontName: Rokkitt-Thin
FullName: Rokkitt Thin
FamilyName: Rokkitt
Weight: Thin
Copyright: Copyright (c) 2011 by vernon adams. All rights reserved.
Version: 001.001
ItalicAngle: 0
UnderlinePosition: -103
UnderlineWidth: 102
Ascent: 1638
Descent: 410
sfntRevision: 0x00010042
LayerCount: 2
Layer: 0 0 "Back"  1
Layer: 1 0 "Fore"  0
NeedsXUIDChange: 1
XUID: [1021 118 1023546858 9554254]
FSType: 0
OS2Version: 3
OS2_WeightWidthSlopeOnly: 0
OS2_UseTypoMetrics: 1
CreationTime: 1318440780
ModificationTime: 1318527621
PfmFamily: 17
TTFWeight: 250
TTFWidth: 5
LineGap: 97
VLineGap: 0
Panose: 2 0 5 3 5 0 0 2 0 3
OS2TypoAscent: 53
OS2TypoAOffset: 1
OS2TypoDescent: -161
OS2TypoDOffset: 1
OS2TypoLinegap: 97
OS2WinAscent: 0
OS2WinAOffset: 1
OS2WinDescent: 0
OS2WinDOffset: 1
HheadAscent: 41
HheadAOffset: 1
HheadDescent: -41
HheadDOffset: 1
OS2SubXSize: 1331
OS2SubYSize: 1228
OS2SubXOff: 0
OS2SubYOff: 153
OS2SupXSize: 1331
OS2SupYSize: 1228
OS2SupXOff: 0
OS2SupYOff: 716
OS2StrikeYSize: 102
OS2StrikeYPos: 501
OS2Vendor: 'newt'
OS2CodePages: 20000081.00000000
OS2UnicodeRanges: 00000003.00000000.00000000.00000000
Lookup: 4 0 1 "'liga' Standard Ligatures lookup 0"  {"'liga' Standard Ligatures lookup 0 subtable"  } ['liga' ('DFLT' <'dflt' > ) ]
Lookup: 4 0 1 "'liga' Standard Ligatures in Greek lookup 1"  {"'liga' Standard Ligatures in Greek lookup 1 subtable"  } ['liga' ('grek' <'dflt' > ) ]
Lookup: 258 0 0 "'kern' Horizontal Kerning lookup 0"  {"'kern' Horizontal Kerning lookup 0 subtable"  } ['kern' ('DFLT' <'dflt' > ) ]
DEI: 91125
LangName: 1033 "" "" "Regular" "1.001;newt;Rokkitt-Thin" "Rokkitt-Thin" "Version 1.000" "" "Rokkitt Thin is a trademark of vernon adams." "vernon adams" "vernon adams" "Copyright (c) 2011 by vernon adams. All rights reserved." "" "newtypography.co.uk" "" "" "" "Rokkitt" 
Encoding: UnicodeBmp
Compacted: 1
UnicodeInterp: none
NameList: Adobe Glyph List
DisplaySize: -48
AntiAlias: 1
FitToEm: 1
WinInfo: 0 26 9
BeginPrivate: 8

StartChar: exclam
Encoding: 33 33 21
Width: 432
Flags: MW
HStem: 0 181 1260 20G
VStem: 90 133
LayerCount: 2
Fore
SplineSet
231 344 m 1
 200 344 l 1
 171 809 l 1
 171 1171 l 1
 260 1171 l 1
 260 809 l 1
 231 344 l 1
164 0 m 1
 164 106 l 1
 267 106 l 1
 267 0 l 1
 164 0 l 1
EndSplineSet
EndChar

StartChar: quotedbl
Encoding: 34 34 22
Width: 543
Flags: MW
HStem: 904 376
LayerCount: 2
Fore
SplineSet
416 1234 m 1
 383 854 l 1
 351 854 l 1
 325 1234 l 1
 416 1234 l 1
223 1234 m 1
 190 854 l 1
 158 854 l 1
 131 1234 l 1
 223 1234 l 1
EndSplineSet
EndChar

StartChar: numbersign
Encoding: 35 35 23
Width: 1034
Flags: MW
HStem: 0 78 25 438 390 73 818 76 1152 82
VStem: -61 252
LayerCount: 2
Fore
SplineSet
94 880 m 1x5c
 269 880 l 1
 298 1234 l 1
 377 1234 l 1
 348 880 l 1
 713 880 l 1
 742 1234 l 1
 821 1234 l 1
 792 880 l 1
 980 880 l 1
 975 821 l 1
 787 821 l 1
 757 457 l 1
 944 457 l 1
 939 398 l 1
 752 398 l 1
 719 0 l 1
 640 0 l 1
 673 398 l 1
 308 398 l 1
 275 0 l 1
 196 0 l 1xbc
 229 398 l 1
 53 398 l 1
 58 457 l 1
 234 457 l 1
 264 821 l 1
 89 821 l 1
 94 880 l 1x5c
343 821 m 1
 313 457 l 1
 678 457 l 1
 708 821 l 1
 343 821 l 1
EndSplineSet
EndChar

StartChar: dollar
Encoding: 36 36 24
Width: 1151
Flags: MW
HStem: -23 75<701 827 701 827> -23 439<224 704 224 701> 0 25 77 21G 396 20G<224 303 303 303> 694 21G 899 356<624 1050 624 971> 1182 73<624 637 637 641>
VStem: 215 91<818 990.5 818 1033.5> 264 75 336 402 641 60<-190 -23 -190 -20 -190 -20 57 587 670 1178 1255 1421> 1032 18 1032 89<252 415>
LayerCount: 2
Fore
SplineSet
704 -23 m 2x4654
 701 -23 l 1x5658
 701 -190 l 1
 641 -190 l 1
 641 -20 l 1
 517 -7 405 41 303 112 c 1
 303 0 l 1
 224 0 l 1x3e58
 224 416 l 1
 303 416 l 1x4658
 303 196 l 1
 411 116 515 71 641 57 c 1
 641 594 l 1x9e58
 376 621 215 684 215 925 c 0x9ea8
 215 1142 409 1255 624 1255 c 2
 641 1255 l 1
 641 1421 l 1
 701 1421 l 1
 701 1250 l 1
 793 1240 882 1210 971 1163 c 1
 971 1234 l 1
 1050 1234 l 1
 1050 899 l 1x9e58
 971 899 l 1
 971 1080 l 1
 917 1116 824 1165 701 1178 c 1
 701 663 l 1
 927 636 1121 571 1121 317 c 0
 1121 184 1019 -23 704 -23 c 2x4654
1032 322 m 0
 1032 508 906 560 701 587 c 1
 701 53 l 1
 711 52 722 52 733 52 c 0x9e58
 921 52 1032 182 1032 322 c 0
306 912 m 0x9da8
 306 724 442 691 641 670 c 1
 641 1182 l 1x9d58
 637 1182 l 2
 409 1182 306 1069 306 912 c 0x9da8
EndSplineSet
EndChar

StartChar: percent
Encoding: 37 37 25
Width: 1610
Flags: MW
HStem: -682 72 -182 97 -47 21G<386 386> -10 98 174 97 576 97 840 97 1121 101 1290 20G<1446 1446>
VStem: 156 74<869 1029.5 869 1050.5> 188 100 541 112 720 74<869 1029.5> 997 74<203 363.5 203 384.5> 1006 111 1193 99 1382 112 1561 74<203 363.5> 1637 93
LayerCount: 2
Fore
SplineSet
341 0 m 1xffbbe0
 1446 1310 l 1
 1487 1270 l 1
 386 -47 l 1
 341 0 l 1xffbbe0
720 950 m 0
 720 1109 596 1192 474 1192 c 0
 351 1192 230 1109 230 950 c 0xffdbe0
 230 788 351 706 474 706 c 0
 596 706 720 788 720 950 c 0
794 950 m 0
 794 746 633 641 474 641 c 0
 314 641 156 746 156 950 c 0
 156 1151 313 1255 474 1255 c 0
 633 1255 794 1153 794 950 c 0
1561 284 m 0
 1561 443 1437 526 1315 526 c 0
 1192 526 1071 443 1071 284 c 0xffbde0
 1071 122 1192 40 1315 40 c 0
 1437 40 1561 122 1561 284 c 0
1635 284 m 0
 1635 80 1474 -25 1315 -25 c 0
 1155 -25 997 80 997 284 c 0
 997 485 1154 589 1315 589 c 0
 1474 589 1635 487 1635 284 c 0
EndSplineSet
EndChar

StartChar: ampersand
Encoding: 38 38 26
Width: 1161
Flags: MW
HStem: -23 91 0 21G<914 1108 914 914> 409 102 1135 120
VStem: 72 73<261 401 261 414> 257 69 718 80
LayerCount: 2
Fore
SplineSet
948 68 m 1xbe
 1108 68 l 1xbe
 1108 0 l 1
 914 0 l 1x7e
 812 113 l 1
 707 -5 584 -23 466 -23 c 0
 247 -23 72 131 72 323 c 0
 72 505 140 626 373 702 c 1
 256 863 l 2
 222 910 206 961 206 1011 c 0
 206 1138 311 1255 485 1255 c 0
 660 1255 769 1154 769 1024 c 0
 769 884 705 770 475 676 c 1
 824 229 l 1
 839 252 912 328 912 511 c 1
 1108 511 l 1
 1108 446 l 1
 968 446 l 1
 968 324 880 193 864 171 c 1
 948 68 l 1xbe
773 170 m 1
 410 646 l 1
 199 584 145 467 145 335 c 0
 145 187 275 48 474 48 c 0
 585 48 679 62 773 170 c 1
323 889 m 2
 440 728 l 1
 649 809 694 891 694 1022 c 0
 694 1130 601 1183 488 1183 c 0
 372 1183 279 1108 279 1009 c 0
 279 967 292 931 323 889 c 2
EndSplineSet
EndChar

StartChar: quotesingle
Encoding: 39 39 27
Width: 350
Flags: MW
HStem: 854 380<158 190 158 158>
LayerCount: 2
Fore
SplineSet
223 1234 m 1
 190 854 l 1
 158 854 l 1
 131 1234 l 1
 223 1234 l 1
EndSplineSet
EndChar

StartChar: parenleft
Encoding: 40 40 28
Width: 580
Flags: MW
HStem: -93 21G -57 20G<508 508>
VStem: 22 168 106 0<616 616>
LayerCount: 2
Fore
SplineSet
106 616 m 0
 106 911 239 1201 508 1268 c 1
 508 1200 l 1
 277 1117 191 864 191 616 c 0
 191 367 277 114 508 31 c 1
 508 -37 l 1
 239 30 106 320 106 616 c 0
EndSplineSet
EndChar

StartChar: parenright
Encoding: 41 41 29
Width: 588
Flags: MW
HStem: -93 21G 1461 20G
VStem: 90 486 408 168
LayerCount: 2
Fore
SplineSet
480 616 m 0
 480 320 346 30 78 -37 c 1
 78 31 l 1
 308 114 394 367 394 616 c 0
 394 864 308 1117 78 1200 c 1
 78 1268 l 1
 346 1201 480 911 480 616 c 0
EndSplineSet
EndChar

StartChar: asterisk
Encoding: 42 42 30
Width: 934
Flags: MW
HStem: 940 495 1081 21G
VStem: 1134 55
LayerCount: 2
Fore
SplineSet
416 1229 m 1
 517 1229 l 1
 485 818 l 1
 859 992 l 1
 890 906 l 1
 494 785 l 1
 763 472 l 1
 687 415 l 1
 467 761 l 1
 246 415 l 1
 170 472 l 1
 439 785 l 1
 43 906 l 1
 74 992 l 1
 449 818 l 1
 416 1229 l 1
EndSplineSet
EndChar

StartChar: plus
Encoding: 43 43 31
Width: 811
Flags: MW
HStem: 138 21G<377 439 377 377> 534 64<20 377 20 377 439 794 20 439> 962 20G<377 439 439 439>
VStem: 377 62<138 534 138 534 598 982>
LayerCount: 2
Fore
SplineSet
439 982 m 1
 439 598 l 1
 794 598 l 1
 794 534 l 1
 439 534 l 1
 439 138 l 1
 377 138 l 1
 377 534 l 1
 20 534 l 1
 20 598 l 1
 377 598 l 1
 377 982 l 1
 439 982 l 1
EndSplineSet
EndChar

StartChar: comma
Encoding: 44 44 32
Width: 412
Flags: MW
HStem: -180 21G<139 189.5> -4 21G<148 210 148 148> 96 20G<148 274 274 274>
VStem: 148 126<-4 116 -55 116> 210 64<-46 -6 -6 -4>
LayerCount: 2
Fore
SplineSet
148 116 m 1xf0
 274 116 l 1
 274 -6 l 2
 274 -104 240 -180 139 -180 c 1
 139 -136 l 1
 205 -114 210 -88 210 -4 c 1xe8
 148 -4 l 1
 148 116 l 1xf0
EndSplineSet
EndChar

StartChar: hyphen
Encoding: 45 45 33
Width: 786
Flags: MW
HStem: 366 161
LayerCount: 2
Fore
SplineSet
661 475 m 1
 661 413 l 1
 131 413 l 1
 131 475 l 1
 661 475 l 1
EndSplineSet
EndChar

StartChar: period
Encoding: 46 46 34
Width: 403
Flags: MW
HStem: 0 120<147 263 147 263>
VStem: 147 116<0 120 0 120>
LayerCount: 2
Fore
SplineSet
147 120 m 1
 263 120 l 1
 263 0 l 1
 147 0 l 1
 147 120 l 1
EndSplineSet
EndChar

StartChar: slash
Encoding: 47 47 35
Width: 537
Flags: MW
HStem: -23 21G<43 43 43 118> 1235 20G<415 486 486 486>
LayerCount: 2
Fore
SplineSet
43 -23 m 1
 415 1255 l 1
 486 1255 l 1
 118 -23 l 1
 43 -23 l 1
EndSplineSet
EndChar

StartChar: zero
Encoding: 48 48 36
Width: 1124
Flags: MW
HStem: 48 568 616 566
VStem: 561 0<-23 -23 48 48 1182 1182 1255 1255>
LayerCount: 2
Fore
SplineSet
561 -23 m 0xa0
 243 -23 113 251 113 616 c 0
 113 974 243 1255 561 1255 c 0
 879 1255 1009 974 1009 616 c 0
 1009 251 879 -23 561 -23 c 0xa0
561 1182 m 0x60
 301 1182 197 968 197 616 c 0
 197 233 309 48 561 48 c 0xa0
 813 48 925 233 925 616 c 0
 925 968 821 1182 561 1182 c 0x60
EndSplineSet
EndChar

StartChar: one
Encoding: 49 49 37
Width: 598
Flags: MW
HStem: 0 78 1152 82
VStem: 112 249 295 66
LayerCount: 2
Fore
SplineSet
360 62 m 1
 529 62 l 1
 529 0 l 1
 102 0 l 1
 102 62 l 1
 279 62 l 1
 279 1147 l 1
 123 1118 l 1
 106 1186 l 1
 360 1234 l 1
 360 62 l 1
EndSplineSet
EndChar

StartChar: two
Encoding: 50 50 38
Width: 993
Flags: MW
HStem: 0 78<219 819 219 897 219 897> 778 477<147 622.5 147 622.5> 1183 72<425 600>
VStem: 147 85<778 778> 793 86<784.5 997.5> 819 78<0 0 0 78>
LayerCount: 2
Fore
SplineSet
819 0 m 1xd4
 897 0 l 1xd4
 109 0 l 1
 109 80 l 1
 223 192 793 659 793 910 c 0
 793 1085 687 1183 513 1183 c 0xb8
 337 1183 216 1074 216 895 c 0
 216 856 222 816 232 778 c 1
 147 778 l 1
 139 816 135 854 135 893 c 0
 135 1121 294 1255 515 1255 c 0
 730 1255 879 1128 879 910 c 0xd8
 879 637 363 217 219 78 c 1
 819 78 l 1
 819 0 l 1xd4
EndSplineSet
EndChar

StartChar: three
Encoding: 51 51 39
Width: 997
Flags: MW
HStem: -22 393 617 80<324 363 324 394> 911 345 1183 73<391 531>
VStem: 39 77 324 541 781 84
LayerCount: 2
Fore
SplineSet
145 1026 m 1xda
 74 1057 l 1
 150 1201 302 1256 457 1256 c 0
 648 1256 854 1142 854 930 c 0
 854 793 762 698 636 660 c 1
 783 625 876 500 876 350 c 0
 876 125 668 -19 457 -19 c 0
 289 -19 125 60 49 216 c 1
 113 257 l 1
 182 119 313 50 465 50 c 0
 635 50 792 170 792 348 c 0
 792 605 561 617 363 617 c 2
 324 617 l 1
 324 697 l 1xec
 346 697 370 697 394 697 c 0
 564 697 769 710 769 929 c 0
 769 1099 607 1183 455 1183 c 0
 327 1183 207 1146 145 1026 c 1xda
EndSplineSet
EndChar

StartChar: four
Encoding: 52 52 40
Width: 895
Flags: MW
HStem: 0 78 330 110 1214 20G<489 603 603 603>
VStem: 522 74
LayerCount: 2
Fore
SplineSet
15 379 m 1
 4 442 l 1
 489 1234 l 1
 603 1234 l 1
 603 442 l 1
 860 442 l 1
 860 379 l 1
 603 379 l 1
 603 62 l 1
 764 62 l 1
 764 0 l 1
 361 0 l 1
 361 62 l 1
 522 62 l 1
 522 379 l 1
 15 379 l 1
97 442 m 1
 522 442 l 1
 522 1156 l 1
 97 442 l 1
EndSplineSet
EndChar

StartChar: five
Encoding: 53 53 41
Width: 1022
Flags: MW
HStem: 660 67 727 507<511 668> 844 320
VStem: 244 253
LayerCount: 2
Fore
SplineSet
123 217 m 1xb0
 203 95 357 53 496 53 c 0
 713 53 872 152 872 384 c 0
 872 565 765 727 571 727 c 0
 451 727 325 716 217 660 c 1xb0
 165 685 l 1
 165 1234 l 1
 812 1234 l 1x50
 812 1164 l 1
 244 1164 l 1
 235 748 l 1
 325 788 461 796 560 796 c 0
 805 796 956 619 956 380 c 0
 956 113 746 -18 497 -18 c 0
 340 -18 173 31 76 163 c 1
 123 217 l 1xb0
EndSplineSet
EndChar

StartChar: six
Encoding: 54 54 42
Width: 885
Flags: MW
HStem: -23 72<343.5 547 336 571> 662 100 1230 78 1289 19
VStem: 188 570<278 697> 761 78
LayerCount: 2
Fore
SplineSet
758 354 m 0
 758 556 602 658 446 658 c 0
 288 658 130 553 130 344 c 0
 130 194 231 49 441 49 c 0
 653 49 758 202 758 354 c 0
545 1361 m 1
 612 1314 l 1
 261 678 l 1
 326 710 393 726 456 726 c 0
 663 726 839 570 839 371 c 0
 839 168 701 -23 441 -23 c 0
 246 -23 53 128 53 341 c 0
 53 484 188 697 188 697 c 1
 545 1361 l 1
EndSplineSet
EndChar

StartChar: seven
Encoding: 55 55 43
Width: 897
Flags: MW
HStem: 0 78 955 279 1151 83
VStem: 83 114 392 81
LayerCount: 2
Fore
SplineSet
782 1164 m 1
 155 1164 l 1
 155 916 l 1
 78 916 l 1
 78 1234 l 1
 870 1234 l 1
 870 1158 l 1
 534 792 450 467 450 52 c 1
 631 52 l 1
 631 -11 l 1
 204 -11 l 1
 204 52 l 1
 368 52 l 1
 368 362 424 761 782 1164 c 1
EndSplineSet
EndChar

StartChar: eight
Encoding: 56 56 44
Width: 1042
Flags: MW
HStem: 48 884 596 335
VStem: 111 412 111 555 195 328 838 82
LayerCount: 2
Fore
SplineSet
934 318 m 0x94
 934 85 727 -24 522 -24 c 0
 315 -24 111 86 111 318 c 0
 111 476 217 611 380 644 c 1
 222 692 152 817 152 938 c 0
 152 1097 282 1255 523 1255 c 0xa4
 764 1255 894 1097 894 938 c 0
 894 817 813 683 666 644 c 1
 829 611 934 476 934 318 c 0x94
523 596 m 1x4c
 307 595 195 458 195 322 c 0
 195 139 360 49 522 49 c 0
 687 49 850 142 850 322 c 0
 850 458 739 595 523 596 c 1x4c
523 1182 m 0
 332 1182 237 1062 237 937 c 0
 237 811 333 679 523 679 c 0
 712 679 808 811 808 937 c 0
 808 1062 714 1182 523 1182 c 0
EndSplineSet
EndChar

StartChar: nine
Encoding: 57 57 45
Width: 952
Flags: MW
HStem: 30 19 30 78 576 100 1183 72<374 577 350 585>
VStem: 82 78 163 570<535 954.5>
LayerCount: 2
Fore
SplineSet
163 878 m 0
 163 677 319 575 475 575 c 0
 632 575 791 679 791 888 c 0
 791 1038 690 1183 480 1183 c 0
 268 1183 163 1031 163 878 c 0
376 -128 m 1
 308 -82 l 1
 660 554 l 1
 595 522 528 506 464 506 c 0
 258 506 82 662 82 862 c 0
 82 1064 220 1255 480 1255 c 0
 674 1255 868 1104 868 892 c 0
 868 749 733 535 733 535 c 1
 376 -128 l 1
EndSplineSet
EndChar

StartChar: colon
Encoding: 58 58 46
Width: 416
Flags: MW
HStem: -386 21G -192 173 702 170
VStem: 87 209 210 86
LayerCount: 2
Fore
SplineSet
150 815 m 1
 267 815 l 1
 267 695 l 1
 150 695 l 1
 150 815 l 1
150 314 m 1
 267 314 l 1
 267 194 l 1
 150 194 l 1
 150 314 l 1
EndSplineSet
EndChar

StartChar: semicolon
Encoding: 59 59 47
Width: 440
Flags: MW
HStem: -386 21G -192 173 702 170
VStem: 107 209 230 86
LayerCount: 2
Fore
SplineSet
166 316 m 1
 292 316 l 1
 292 193 l 2
 292 95 257 19 156 19 c 1
 156 64 l 1
 222 85 227 112 227 196 c 1
 166 196 l 1
 166 316 l 1
170 815 m 1
 287 815 l 1
 287 695 l 1
 170 695 l 1
 170 815 l 1
EndSplineSet
EndChar

StartChar: less
Encoding: 60 60 48
Width: 907
Flags: MW
HStem: -23 21G<829 829> 1235 20G<829 829>
LayerCount: 2
Fore
SplineSet
829 -23 m 1
 -18 613 l 1
 829 1255 l 1
 829 1162 l 1
 96 613 l 1
 829 68 l 1
 829 -23 l 1
EndSplineSet
EndChar

StartChar: equal
Encoding: 61 61 49
Width: 791
Flags: MW
HStem: 1092 78 1585 78
LayerCount: 2
Fore
SplineSet
652 696 m 1
 652 634 l 1
 143 634 l 1
 143 696 l 1
 652 696 l 1
652 419 m 1
 652 356 l 1
 143 356 l 1
 143 419 l 1
 652 419 l 1
EndSplineSet
EndChar

StartChar: greater
Encoding: 62 62 50
Width: 909
Flags: MW
HStem: -23 21G<86 86> 1235 20G<86 86>
LayerCount: 2
Fore
SplineSet
933 613 m 1
 86 -23 l 1
 86 68 l 1
 819 613 l 1
 86 1162 l 1
 86 1255 l 1
 933 613 l 1
EndSplineSet
EndChar

StartChar: question
Encoding: 63 63 51
Width: 727
Flags: MW
HStem: -23 79<265 349 265 349> 923 332 1151 72<261.5 407>
VStem: -12 72 280 33<289 509.5> 280 69 565 77<793.5 981>
LayerCount: 2
Fore
SplineSet
81 1004 m 1xba
 20 1040 l 1
 74 1168 194 1223 322 1223 c 0xb6
 494 1223 642 1106 642 923 c 0
 642 612 337 695 313 289 c 1
 280 289 l 1
 280 730 565 664 565 923 c 0xda
 565 1039 489 1151 325 1151 c 0
 198 1151 117 1090 81 1004 c 1xba
349 56 m 1
 349 -23 l 1
 265 -23 l 1
 265 56 l 1
 349 56 l 1
EndSplineSet
EndChar

StartChar: at
Encoding: 64 64 52
Width: 1458
Flags: MW
HStem: -4 189 26 675 559 635 962 21
VStem: 172 552 377 698<459 962> 664 289 940 102
LayerCount: 2
Fore
SplineSet
964 840 m 1x99
 988 962 l 1
 1075 962 l 1x94
 953 402 l 2x92
 952 396 951 390 951 384 c 0
 951 349 976 325 1007 325 c 0
 1083 325 1278 466 1278 732 c 0
 1278 971 1096 1194 769 1194 c 0xa9
 420 1194 172 937 172 586 c 0
 172 248 391 26 783 26 c 0x59
 946 26 1072 61 1174 133 c 1
 1211 83 l 1
 1101 1 971 -43 783 -43 c 0
 305 -43 84 265 84 588 c 0
 84 920 328 1265 773 1265 c 0
 1189 1265 1357 998 1357 732 c 0
 1357 486 1168 252 983 252 c 0
 941 252 888 287 888 383 c 0
 888 396 888 409 891 424 c 1
 808 299 717 252 629 252 c 0
 505 252 377 358 377 560 c 0xa4
 377 761 492 983 736 983 c 0
 819 983 913 944 964 840 c 1x99
921 701 m 0x59
 921 829 841 913 724 913 c 0xa9
 559 913 471 721 471 559 c 0
 471 430 534 318 664 318 c 0xa2
 805 318 921 520 921 701 c 0x59
EndSplineSet
EndChar

StartChar: A
Encoding: 65 65 53
Width: 1321
Flags: MW
HStem: 0 62<4 163 249 408 4 163 885 1044 1130 1288> 504 61 1171 63<421 579 421 872 715 872 715 715>
VStem: 211 81
LayerCount: 2
Fore
SplineSet
421 1234 m 1
 872 1234 l 1
 872 1171 l 1
 715 1171 l 1
 1130 62 l 1
 1288 62 l 1
 1288 0 l 1
 885 0 l 1
 885 62 l 1
 1044 62 l 1
 884 503 l 1
 409 503 l 1
 249 62 l 1
 408 62 l 1
 408 0 l 1
 4 0 l 1
 4 62 l 1
 163 62 l 1
 579 1171 l 1
 421 1171 l 1
 421 1234 l 1
646 1153 m 1
 430 564 l 1
 872 564 l 1
 646 1153 l 1
EndSplineSet
EndChar

StartChar: B
Encoding: 66 66 54
Width: 1233
Flags: MW
HStem: 0 78 587 101 1152 82
VStem: 307 50 880 67 947 63
LayerCount: 2
Fore
SplineSet
101 0 m 1
 101 62 l 1
 254 62 l 1
 254 1171 l 1
 88 1171 l 1
 88 1234 l 1
 748 1234 l 2
 988 1234 1111 1082 1111 931 c 0
 1111 822 1058 716 940 654 c 1
 1106 608 1183 470 1183 338 c 0
 1183 169 1060 0 820 0 c 2
 101 0 l 1
820 62 m 2
 1010 62 1103 200 1103 342 c 0
 1103 469 1004 613 805 613 c 2
 335 613 l 1
 335 62 l 1
 820 62 l 2
335 1171 m 1
 335 678 l 1
 796 678 l 2
 950 678 1031 803 1031 928 c 0
 1031 1051 938 1171 748 1171 c 2
 335 1171 l 1
EndSplineSet
EndChar

StartChar: C
Encoding: 67 67 55
Width: 1341
Flags: MW
HStem: 48 235 874 381 1182 73<542.5 806 526.5 841.5>
VStem: 78 84<476 767 476 802> 1191 75<1027 1234 887 1234>
LayerCount: 2
Fore
SplineSet
1275 283 m 1xb8
 1155 76 963 -23 701 -23 c 0
 403 -23 78 184 78 622 c 0
 78 982 347 1255 706 1255 c 0
 906 1255 1083 1178 1191 1027 c 1
 1191 1234 l 1
 1266 1234 l 1
 1266 887 l 1
 1204 874 l 1xd8
 1132 1036 965 1182 718 1182 c 0
 367 1182 162 912 162 622 c 0
 162 330 340 48 718 48 c 0
 912 48 1098 131 1206 334 c 1
 1275 283 l 1xb8
EndSplineSet
EndChar

StartChar: D
Encoding: 68 68 56
Width: 1409
Flags: MW
HStem: 0 78 1152 82
VStem: 291 57 1179 89
LayerCount: 2
Fore
SplineSet
100 1234 m 1
 793 1234 l 2
 1155 1234 1338 923 1338 614 c 0
 1338 306 1156 0 793 0 c 2
 100 0 l 1
 100 62 l 1
 266 62 l 1
 266 1171 l 1
 100 1171 l 1
 100 1234 l 1
792 1171 m 2
 348 1171 l 1
 348 62 l 1
 792 62 l 2
 1102 62 1254 338 1254 616 c 0
 1254 893 1101 1171 792 1171 c 2
EndSplineSet
EndChar

StartChar: E
Encoding: 69 69 57
Width: 1249
Flags: MW
HStem: 0 78 0 326 580 106 912 322 1152 82
VStem: 276 53 836 118 1022 69
LayerCount: 2
Fore
SplineSet
1019 1164 m 1
 355 1164 l 1
 355 666 l 1
 788 666 l 1
 788 824 l 1
 855 824 l 1
 855 424 l 1
 788 424 l 1
 788 596 l 1
 355 596 l 1
 355 70 l 1
 1040 70 l 1
 1040 376 l 1
 1117 376 l 1
 1117 0 l 1
 98 0 l 1
 98 70 l 1
 273 70 l 1
 273 1164 l 1
 98 1164 l 1
 98 1234 l 1
 1095 1234 l 1
 1095 858 l 1
 1019 858 l 1
 1019 1164 l 1
EndSplineSet
EndChar

StartChar: F
Encoding: 70 70 58
Width: 1137
Flags: MW
HStem: 0 78 586 106 912 322 1152 82
VStem: 264 48 774 108 924 69
LayerCount: 2
Fore
SplineSet
1026 1164 m 1
 355 1164 l 1
 355 643 l 1
 848 643 l 1
 848 817 l 1
 915 817 l 1
 915 404 l 1
 848 404 l 1
 848 577 l 1
 355 577 l 1
 355 70 l 1
 557 70 l 1
 557 0 l 1
 98 0 l 1
 98 70 l 1
 273 70 l 1
 273 1164 l 1
 98 1164 l 1
 98 1234 l 1
 1103 1234 l 1
 1103 858 l 1
 1026 858 l 1
 1026 1164 l 1
EndSplineSet
EndChar

StartChar: G
Encoding: 71 71 59
Width: 1356
Flags: MW
HStem: -23 546<556 945> 523 99 1051 131
VStem: 705 589 706 12 945 235
LayerCount: 2
Fore
SplineSet
945 523 m 1x6c
 945 589 l 1xac
 1294 589 l 1
 1294 101 969 -23 705 -23 c 0xb0
 407 -23 78 184 78 622 c 0
 78 982 347 1255 706 1255 c 0
 897 1255 1063 1186 1167 1051 c 1
 1167 1234 l 1
 1242 1234 l 1
 1242 898 l 1
 1180 898 l 1
 1110 1048 953 1182 718 1182 c 0
 367 1182 162 912 162 622 c 0
 162 326 340 48 718 48 c 0
 923 48 1203 158 1210 523 c 1
 945 523 l 1x6c
EndSplineSet
EndChar

StartChar: H
Encoding: 72 72 60
Width: 1475
Flags: MW
HStem: 0 78 592 97 1152 82
VStem: 168 378 319 48 967 379 1145 51
LayerCount: 2
Fore
SplineSet
991 1234 m 1
 1360 1234 l 1
 1360 1171 l 1
 1220 1171 l 1
 1220 62 l 1
 1360 62 l 1
 1360 0 l 1
 991 0 l 1
 991 62 l 1
 1139 62 l 1
 1139 598 l 1
 337 598 l 1
 337 62 l 1
 492 62 l 1
 492 0 l 1
 104 0 l 1
 104 62 l 1
 256 62 l 1
 256 1171 l 1
 104 1171 l 1
 104 1234 l 1
 492 1234 l 1
 492 1171 l 1
 337 1171 l 1
 337 661 l 1
 1139 661 l 1
 1139 1171 l 1
 991 1171 l 1
 991 1234 l 1
EndSplineSet
EndChar

StartChar: I
Encoding: 73 73 61
Width: 612
Flags: MW
HStem: 0 62<102 263 345 505 102 263> 1171 63<102 263 102 505 345 505 345 345>
VStem: 263 82<62 1171 62 1171>
LayerCount: 2
Fore
SplineSet
102 1234 m 1
 505 1234 l 1
 505 1171 l 1
 345 1171 l 1
 345 62 l 1
 505 62 l 1
 505 0 l 1
 102 0 l 1
 102 62 l 1
 263 62 l 1
 263 1171 l 1
 102 1171 l 1
 102 1234 l 1
EndSplineSet
EndChar

StartChar: J
Encoding: 74 74 62
Width: 461
Flags: MW
HStem: -41 0<23 23 107 107> 1174 60<42 181 42 402 263 263 263 402>
VStem: 181 82<59 60 60 1174> 263 139<60 1234>
LayerCount: 2
Fore
SplineSet
181 59 m 2xe0
 181 1174 l 1xe0
 42 1174 l 1
 42 1234 l 1
 402 1234 l 1
 402 1174 l 1xd0
 263 1174 l 1
 263 60 l 2
 263 -103 163 -101 94 -101 c 2
 23 -101 l 1
 23 -41 l 1
 107 -41 l 2
 136 -41 181 -44 181 59 c 2xe0
EndSplineSet
EndChar

StartChar: K
Encoding: 75 75 63
Width: 1317
Flags: MW
HStem: 0 60<102 263 345 506 102 263 822 989 1107 1277>
VStem: 335 772 989 288<0 60>
LayerCount: 2
Fore
SplineSet
102 1234 m 1xa0
 506 1234 l 1
 506 1174 l 1
 345 1174 l 1
 345 642 l 1
 941 1174 l 1
 788 1174 l 1
 788 1234 l 1
 1220 1234 l 1
 1220 1174 l 1
 1047 1174 l 1
 447 634 l 1
 1107 60 l 1xc0
 1277 60 l 1
 1277 0 l 1
 822 0 l 1
 822 60 l 1
 989 60 l 1
 345 625 l 1
 345 60 l 1
 506 60 l 1
 506 0 l 1
 102 0 l 1
 102 60 l 1
 263 60 l 1
 263 1174 l 1
 102 1174 l 1
 102 1234 l 1xa0
EndSplineSet
EndChar

StartChar: L
Encoding: 76 76 64
Width: 1149
Flags: MW
HStem: 0 25 0 70<111 250 332 960 111 250>
VStem: 276 550
LayerCount: 2
Fore
SplineSet
111 1234 m 1
 471 1234 l 1
 471 1174 l 1
 332 1174 l 1
 332 70 l 1
 960 70 l 1
 960 412 l 1
 1036 412 l 1
 1036 0 l 1
 111 0 l 1
 111 70 l 1
 250 70 l 1
 250 1174 l 1
 111 1174 l 1
 111 1234 l 1
EndSplineSet
EndChar

StartChar: M
Encoding: 77 77 65
Width: 1663
Flags: MW
HStem: 0 78 1152 82
VStem: 101 387 257 103 1134 317 1259 40
LayerCount: 2
Fore
SplineSet
839 78 m 1
 342 1088 l 1
 342 62 l 1
 503 62 l 1
 503 0 l 1
 102 0 l 1
 102 62 l 1
 263 62 l 1
 263 1171 l 1
 102 1171 l 1
 102 1234 l 1
 358 1234 l 1
 839 239 l 1
 1300 1234 l 1
 1556 1234 l 1
 1556 1171 l 1
 1395 1171 l 1
 1395 62 l 1
 1556 62 l 1
 1556 0 l 1
 1155 0 l 1
 1155 62 l 1
 1316 62 l 1
 1316 1088 l 1
 839 78 l 1
EndSplineSet
EndChar

StartChar: N
Encoding: 78 78 66
Width: 1473
Flags: MW
HStem: 0 78 1152 82
VStem: 142 484 335 91 1140 90
LayerCount: 2
Fore
SplineSet
102 1234 m 1
 342 1234 l 1
 1186 125 l 1
 1186 1171 l 1
 1025 1171 l 1
 1025 1234 l 1
 1426 1234 l 1
 1426 1171 l 1
 1265 1171 l 1
 1265 0 l 1
 1186 0 l 1
 342 1114 l 1
 342 62 l 1
 503 62 l 1
 503 0 l 1
 102 0 l 1
 102 62 l 1
 263 62 l 1
 263 1171 l 1
 102 1171 l 1
 102 1234 l 1
EndSplineSet
EndChar

StartChar: O
Encoding: 79 79 67
Width: 1427
Flags: MW
HStem: -23 101 614 641
VStem: 128 68 1248 68
LayerCount: 2
Fore
SplineSet
718 1182 m 0
 348 1182 162 896 162 614 c 0
 162 325 344 48 718 48 c 0
 1085 48 1274 332 1274 614 c 0
 1274 896 1084 1182 718 1182 c 0
718 -23 m 0
 291 -23 78 294 78 613 c 0
 78 934 293 1255 718 1255 c 0
 1143 1255 1358 934 1358 613 c 0
 1358 294 1145 -23 718 -23 c 0
EndSplineSet
EndChar

StartChar: P
Encoding: 80 80 68
Width: 1184
Flags: MW
HStem: 0 62<101 254 101 254 335 505> 517 65<335 769 335 769> 1171 63<88 254 88 769 335 769 335 335>
VStem: 254 81<62 517 62 582 582 1171> 968 84
LayerCount: 2
Fore
SplineSet
101 0 m 1
 101 62 l 1
 254 62 l 1
 254 1171 l 1
 88 1171 l 1
 88 1234 l 1
 769 1234 l 2
 1009 1234 1131 1058 1131 883 c 0
 1131 702 1009 517 769 517 c 2
 335 517 l 1
 335 62 l 1
 505 62 l 1
 505 0 l 1
 101 0 l 1
335 1171 m 1
 335 582 l 1
 769 582 l 2
 956 582 1052 731 1052 880 c 0
 1052 1027 958 1171 769 1171 c 2
 335 1171 l 1
EndSplineSet
EndChar

StartChar: Q
Encoding: 81 81 69
Width: 1425
Flags: MW
HStem: -92 104 -23 101 49 1103 49 1206 614 641
VStem: 141 812 1248 68
LayerCount: 2
Fore
SplineSet
612 3 m 1xa6
 767 -11 l 1
 859 -87 940 -135 1041 -135 c 0
 1080 -135 1121 -128 1168 -112 c 1
 1191 -177 l 1
 1133 -197 1082 -206 1033 -206 c 0
 887 -206 771 -123 612 3 c 1xa6
718 1182 m 0
 348 1182 162 896 162 614 c 0
 162 325 344 48 718 48 c 0
 1085 48 1274 332 1274 614 c 0x8e
 1274 896 1084 1182 718 1182 c 0
718 -23 m 0x4e
 291 -23 78 294 78 613 c 0
 78 934 293 1255 718 1255 c 0x96
 1143 1255 1358 934 1358 613 c 0
 1358 294 1145 -23 718 -23 c 0x4e
EndSplineSet
EndChar

StartChar: R
Encoding: 82 82 70
Width: 1274
Flags: MW
HStem: 0 78 598 81 1152 82
VStem: 295 51 945 70
LayerCount: 2
Fore
SplineSet
101 0 m 1
 101 62 l 1
 254 62 l 1
 254 1171 l 1
 88 1171 l 1
 88 1234 l 1
 728 1234 l 2
 968 1234 1090 1070 1090 907 c 0
 1090 744 968 577 728 577 c 2
 727 577 l 1
 1043 62 l 1
 1217 62 l 1
 1217 0 l 1
 985 0 l 1
 643 577 l 1
 335 577 l 1
 335 62 l 1
 505 62 l 1
 505 0 l 1
 101 0 l 1
335 1171 m 1
 335 642 l 1
 728 642 l 2
 915 642 1011 773 1011 904 c 0
 1011 1039 917 1171 728 1171 c 2
 335 1171 l 1
EndSplineSet
EndChar

StartChar: S
Encoding: 83 83 71
Width: 1106
Flags: MW
HStem: -23 75<557.5 741 536 789.5> -23 439<152 789.5> 0 21G<152 231 152 152> 899 356<444.5 978 444.5 899> 1182 73<451 612 444.5 643>
VStem: 143 91 960 18 960 89<252 422.5>
LayerCount: 2
Fore
SplineSet
632 -23 m 0x8d
 483 -23 310 25 231 132 c 1
 231 0 l 1
 152 0 l 1x36
 152 416 l 1
 231 416 l 1x56
 231 266 l 2
 231 128 431 52 641 52 c 0
 841 52 960 182 960 322 c 0
 960 523 813 569 577 593 c 0
 307 621 149 681 149 925 c 0
 149 1142 337 1255 552 1255 c 0
 672 1255 838 1211 899 1123 c 1
 899 1234 l 1
 978 1234 l 1
 978 899 l 1
 899 899 l 1x96
 899 1008 l 2
 899 1097 721 1182 565 1182 c 0
 337 1182 240 1069 240 912 c 0
 240 715 385 689 600 667 c 0
 839 642 1049 582 1049 317 c 0
 1049 184 947 -23 632 -23 c 0x8d
EndSplineSet
EndChar

StartChar: T
Encoding: 84 84 72
Width: 1071
Flags: MW
HStem: 0 78 966 268 1152 82
VStem: 67 78 498 61 896 87
LayerCount: 2
Fore
SplineSet
-14 1234 m 1
 1073 1234 l 1
 1073 842 l 1
 996 842 l 1
 996 1164 l 1
 566 1164 l 1
 566 60 l 1
 742 60 l 1
 742 0 l 1
 310 0 l 1
 310 60 l 1
 485 60 l 1
 485 1164 l 1
 62 1164 l 1
 62 842 l 1
 -14 842 l 1
 -14 1234 l 1
EndSplineSet
EndChar

StartChar: U
Encoding: 85 85 73
Width: 1421
Flags: MW
HStem: -22 100 1152 82
VStem: 284 60 1053 143
LayerCount: 2
Fore
SplineSet
1142 406 m 2
 1142 1171 l 1
 981 1171 l 1
 981 1234 l 1
 1384 1234 l 1
 1384 1171 l 1
 1224 1171 l 1
 1224 404 l 2
 1224 121 952 -23 682 -23 c 0
 422 -23 163 118 163 404 c 2
 163 1171 l 1
 2 1171 l 1
 2 1234 l 1
 405 1234 l 1
 405 1171 l 1
 244 1171 l 1
 244 406 l 2
 244 164 462 48 680 48 c 0
 910 48 1142 169 1142 406 c 2
EndSplineSet
EndChar

StartChar: V
Encoding: 86 86 74
Width: 1159
Flags: MW
HStem: 4 21G 1152 82
LayerCount: 2
Fore
SplineSet
602 0 m 1
 516 0 l 1
 76 1171 l 1
 -82 1171 l 1
 -82 1234 l 1
 321 1234 l 1
 321 1171 l 1
 164 1171 l 1
 560 100 l 1
 952 1171 l 1
 799 1171 l 1
 799 1234 l 1
 1202 1234 l 1
 1202 1171 l 1
 1046 1171 l 1
 602 0 l 1
EndSplineSet
EndChar

StartChar: W
Encoding: 87 87 75
Width: 1827
Flags: MW
HStem: 4 21G 1152 82
LayerCount: 2
Fore
SplineSet
1326 0 m 1
 1239 0 l 1
 893 1044 l 1
 560 0 l 1
 471 0 l 1
 80 1171 l 1
 -78 1171 l 1
 -78 1234 l 1
 325 1234 l 1
 325 1171 l 1
 168 1171 l 1
 516 100 l 1
 848 1171 l 1
 695 1171 l 1
 695 1234 l 1
 1093 1234 l 1
 1093 1171 l 1
 936 1171 l 1
 1284 100 l 1
 1616 1171 l 1
 1463 1171 l 1
 1463 1234 l 1
 1862 1234 l 1
 1862 1171 l 1
 1706 1171 l 1
 1326 0 l 1
EndSplineSet
EndChar

StartChar: X
Encoding: 88 88 76
Width: 1270
Flags: MW
HStem: 0 78 1152 82
VStem: 84 444
LayerCount: 2
Fore
SplineSet
67 1234 m 1
 470 1234 l 1
 470 1171 l 1
 310 1171 l 1
 629 695 l 1
 947 1171 l 1
 787 1171 l 1
 787 1234 l 1
 1190 1234 l 1
 1190 1171 l 1
 1032 1171 l 1
 673 629 l 1
 1054 62 l 1
 1214 62 l 1
 1214 0 l 1
 811 0 l 1
 811 62 l 1
 972 62 l 1
 632 568 l 1
 298 62 l 1
 458 62 l 1
 458 0 l 1
 55 0 l 1
 55 62 l 1
 209 62 l 1
 588 634 l 1
 228 1171 l 1
 67 1171 l 1
 67 1234 l 1
EndSplineSet
EndChar

StartChar: Y
Encoding: 89 89 77
Width: 1141
Flags: MW
HStem: 0 78 1152 82
VStem: 428 52
LayerCount: 2
Fore
SplineSet
70 1171 m 1
 -88 1171 l 1
 -88 1234 l 1
 315 1234 l 1
 315 1171 l 1
 158 1171 l 1
 555 508 l 1
 945 1171 l 1
 786 1171 l 1
 786 1234 l 1
 1189 1234 l 1
 1189 1171 l 1
 1033 1171 l 1
 594 436 l 1
 594 62 l 1
 754 62 l 1
 754 0 l 1
 351 0 l 1
 351 62 l 1
 512 62 l 1
 512 436 l 1
 70 1171 l 1
EndSplineSet
EndChar

StartChar: Z
Encoding: 90 90 78
Width: 1229
Flags: MW
HStem: 0 62 1153 81<121 1068>
VStem: 216 659 979 89<1164 1164>
LayerCount: 2
Fore
SplineSet
1068 1153 m 1
 185 70 l 1
 1027 70 l 1
 1027 376 l 1
 1104 376 l 1
 1104 0 l 1
 102 0 l 1
 102 96 l 1
 979 1164 l 1
 198 1164 l 1
 198 870 l 1
 121 870 l 1
 121 1234 l 1
 1068 1234 l 1
 1068 1153 l 1
EndSplineSet
EndChar

StartChar: bracketleft
Encoding: 91 91 79
Width: 518
Flags: MW
HStem: -560 26 -23 63<260 420 260 420> 1193 62<260 420 260 260> 1464 35
VStem: 62 2 62 438 178 82<40 1193 40 1255 40 1255>
LayerCount: 2
Fore
SplineSet
178 1255 m 1
 420 1255 l 1
 420 1193 l 1
 260 1193 l 1
 260 40 l 1
 420 40 l 1
 420 -23 l 1
 178 -23 l 1
 178 1255 l 1
EndSplineSet
EndChar

StartChar: backslash
Encoding: 92 92 80
Width: 535
Flags: MW
HStem: -17 21G 1257 20G
LayerCount: 2
Fore
SplineSet
124 1255 m 1
 496 -23 l 1
 420 -23 l 1
 53 1255 l 1
 124 1255 l 1
EndSplineSet
EndChar

StartChar: bracketright
Encoding: 93 93 81
Width: 522
Flags: MW
HStem: -560 26 1464 35
VStem: -186 437 246 5
LayerCount: 2
Fore
SplineSet
100 1255 m 1
 342 1255 l 1
 342 -23 l 1
 100 -23 l 1
 100 40 l 1
 261 40 l 1
 261 1193 l 1
 100 1193 l 1
 100 1255 l 1
EndSplineSet
EndChar

StartChar: asciicircum
Encoding: 94 94 82
Width: 891
Flags: MW
HStem: 761 21G<61 135 61 61 750 822 750 750> 1235 20G<407 492 492 492>
LayerCount: 2
Fore
SplineSet
492 1255 m 1
 822 761 l 1
 750 761 l 1
 449 1186 l 1
 135 761 l 1
 61 761 l 1
 407 1255 l 1
 492 1255 l 1
EndSplineSet
EndChar

StartChar: underscore
Encoding: 95 95 83
Width: 1016
Flags: MW
HStem: -389 166 -109 161
LayerCount: 2
Fore
SplineSet
871 0 m 1
 871 -62 l 1
 139 -62 l 1
 139 0 l 1
 871 0 l 1
EndSplineSet
EndChar

StartChar: grave
Encoding: 96 96 84
Width: 420
Flags: MW
HStem: 985 249<104 292 104 261>
LayerCount: 2
Fore
SplineSet
292 985 m 1
 261 985 l 1
 104 1234 l 1
 231 1234 l 1
 292 985 l 1
EndSplineSet
EndChar

StartChar: a
Encoding: 97 97 85
Width: 981
Flags: MW
HStem: -14 21G<269.5 426> 0 53 0 60<754 907 754 907> 410 65<390 481.5 354 502> 787 67<373.5 509.5>
VStem: 80 81<189 321.5 189 342> 674 80<95 95 158 384 384 384 446 575 575 593 60 655.5>
LayerCount: 2
Fore
SplineSet
366 -14 m 0x9e
 173 -14 80 101 80 232 c 0
 80 452 265 475 443 475 c 0
 520 475 593 462 674 446 c 1
 674 575 l 2
 674 736 583 787 436 787 c 0
 311 787 216 757 156 696 c 1
 120 755 l 1
 194 826 304 854 438 854 c 0
 698 854 754 701 754 593 c 2
 754 60 l 1
 907 60 l 1x3e
 907 0 l 1
 690 0 l 1x5e
 674 95 l 1
 576 22 486 -14 366 -14 c 0x9e
674 158 m 1
 674 384 l 1
 674 384 553 410 451 410 c 0
 329 410 161 413 161 230 c 0
 161 148 214 53 376 53 c 0x5e
 490 53 589 80 674 158 c 1
EndSplineSet
EndChar

StartChar: b
Encoding: 98 98 86
Width: 1169
Flags: MW
HStem: -14 67<642 823 642 859.5> 0 21G<94 325 94 94> 787 67<637.5 811> 1174 60<110 259 110 338>
VStem: 94 244<0 619 60 619> 259 79<193 619 695 1174 1174 1174> 1057 79<337 525>
LayerCount: 2
Fore
SplineSet
110 1234 m 1xb6
 338 1234 l 1
 338 695 l 1
 413 784 547 854 697 854 c 0
 983 854 1136 644 1136 434 c 0
 1136 240 1019 -14 700 -14 c 0xba
 535 -14 385 73 338 125 c 1
 333 82 329 41 325 0 c 1
 94 0 l 1
 94 60 l 1x7a
 259 60 l 1
 259 1174 l 1
 110 1174 l 1
 110 1234 l 1xb6
1057 426 m 0
 1057 624 921 787 701 787 c 0
 574 787 472 756 338 619 c 1
 338 193 l 1
 483 82 581 53 703 53 c 0
 943 53 1057 245 1057 426 c 0
EndSplineSet
EndChar

StartChar: c
Encoding: 99 99 87
Width: 936
Flags: MW
HStem: -14 67 600 254<500 838 500 772> 787 67<500 565.5 500 599>
VStem: 57 82<302 537.5 302 542>
LayerCount: 2
Fore
SplineSet
496 -14 m 1xb0
 267 -11 57 157 57 416 c 0
 57 668 225 850 500 854 c 1
 631 854 729 803 762 750 c 1
 762 860 l 1
 838 860 l 1
 838 600 l 1
 772 600 l 1xd0
 763 690 698 787 500 787 c 0
 313 787 139 662 139 413 c 0
 139 191 312 58 500 54 c 1
 627 54 758 110 844 222 c 1
 867 149 l 1
 753 35 619 -14 496 -14 c 1xb0
EndSplineSet
EndChar

StartChar: d
Encoding: 100 100 88
Width: 1165
Flags: MW
HStem: -22 77 791 81 1152 82
VStem: 18 80 641 264 845 60
LayerCount: 2
Fore
SplineSet
641 1234 m 1xf8
 924 1234 l 1
 924 60 l 1
 1089 60 l 1
 1089 0 l 1
 858 0 l 1
 845 125 l 1
 798 73 648 -14 483 -14 c 0
 164 -14 47 240 47 434 c 0
 47 644 200 854 486 854 c 0
 636 854 770 784 845 695 c 1
 845 1174 l 1xf4
 641 1174 l 1
 641 1234 l 1xf8
126 426 m 0xf8
 126 245 240 53 480 53 c 0
 602 53 700 82 845 193 c 1
 845 619 l 1xf4
 711 756 609 787 482 787 c 0
 262 787 126 624 126 426 c 0xf8
EndSplineSet
EndChar

StartChar: e
Encoding: 101 101 89
Width: 934
Flags: MW
HStem: -14 414<367 548> 400 66<139 812 141 812 141 890> 787 67<388 597.5>
VStem: 57 94
LayerCount: 2
Fore
SplineSet
139 400 m 1xb0
 155 169 313 52 488 52 c 0
 614 52 741 106 834 204 c 1
 867 149 l 1
 746 35 611 -14 485 -14 c 0
 249 -14 57 169 57 420 c 0
 57 637 206 854 504 854 c 0
 745 854 890 648 890 400 c 1
 139 400 l 1xb0
141 466 m 1x70
 812 466 l 1
 797 632 691 787 504 787 c 0
 272 787 150 623 141 466 c 1x70
EndSplineSet
EndChar

StartChar: f
Encoding: 102 102 90
Width: 643
Flags: MW
HStem: 0 60<106 261 106 261 340 531> 779 57<106 261 106 261 340 543> 1158 97
VStem: 106 425<0 60 0 60> 261 79<60 779 60 779 836 1064 1064 1066> 509 75<1066 1102>
LayerCount: 2
Fore
SplineSet
106 0 m 1xf0
 106 60 l 1xf0
 261 60 l 1
 261 779 l 1xec
 106 779 l 1
 106 836 l 1xf0
 261 836 l 1
 261 1064 l 2
 261 1174 345 1234 428 1234 c 0
 506 1234 581 1180 584 1066 c 1
 509 1066 l 1
 509 1138 472 1172 430 1172 c 0
 386 1172 340 1134 340 1066 c 2
 340 836 l 1
 543 836 l 1
 543 779 l 1
 340 779 l 1
 340 60 l 1xec
 531 60 l 1
 531 0 l 1
 106 0 l 1xf0
EndSplineSet
EndChar

StartChar: g
Encoding: 103 103 91
Width: 1110
Flags: MW
HStem: -337 20G<261 436.5> 0 25
VStem: -397 24 831 0<12 12 120 120 190 190 647 647 715 715>
LayerCount: 2
Fore
SplineSet
831 12 m 2
 831 120 l 1
 758 46 634 -14 489 -14 c 0
 204 -14 57 203 57 416 c 0
 57 610 176 854 480 854 c 0
 640 854 785 767 831 715 c 1
 844 840 l 1
 1074 840 l 1
 1074 780 l 1
 910 780 l 1
 910 29 l 2
 910 -312 612 -317 261 -317 c 1
 261 -248 l 1
 570 -248 831 -262 831 12 c 2
136 414 m 1
 142 216 272 53 484 53 c 0
 606 53 701 73 831 190 c 1
 831 647 l 1
 690 758 596 787 478 787 c 0
 242 787 136 594 136 414 c 1
EndSplineSet
EndChar

StartChar: h
Encoding: 104 104 92
Width: 1198
Flags: MW
HStem: 0 78 791 81 1152 82
VStem: 74 252 74 474 259 67 803 409 944 63
LayerCount: 2
Fore
SplineSet
259 1176 m 1
 86 1176 l 1
 86 1234 l 1
 338 1234 l 1
 338 736 l 1
 481 815 560 854 695 854 c 0
 896 854 960 726 960 617 c 2
 960 60 l 1
 1135 60 l 1
 1135 0 l 1
 723 0 l 1
 723 60 l 1
 881 60 l 1
 881 601 l 2
 881 704 849 787 687 787 c 0
 548 787 447 726 338 664 c 1
 338 60 l 1
 530 60 l 1
 530 0 l 1
 97 0 l 1
 97 60 l 1
 259 60 l 1
 259 1176 l 1
EndSplineSet
EndChar

StartChar: i
Encoding: 105 105 93
Width: 582
Flags: MW
HStem: 0 0<115 115 498 498> 60 776<115 265 265 265 115 498 115 498> 1092 113<280 321.5>
VStem: 115 150<0 776 60 776 60 836 60 836> 115 229<0 836 60 836 776 836 60 836>
LayerCount: 2
Fore
SplineSet
301 1205 m 0xf0
 343 1205 364 1177 364 1148 c 0
 364 1121 342 1092 301 1092 c 0
 259 1092 239 1121 239 1148 c 0
 239 1177 259 1205 301 1205 c 0xf0
265 776 m 1
 115 776 l 1
 115 836 l 1
 344 836 l 1
 344 60 l 1xe8
 498 60 l 1
 498 0 l 1
 115 0 l 1
 115 60 l 1
 265 60 l 1
 265 776 l 1
EndSplineSet
EndChar

StartChar: j
Encoding: 106 106 94
Width: 408
Flags: MW
HStem: -211 177<-53 162 25 162> 836 0<25 25 241 241> 1098 107
VStem: -53 215<-271 779 -211 779> 25 137<-34 836 -34 836> 162 79<-34 -22 -22 779 779 779>
LayerCount: 2
Fore
SplineSet
162 -34 m 2xe8
 162 779 l 1
 25 779 l 1
 25 836 l 1xe8
 241 836 l 1
 241 -22 l 2xe4
 241 -143 241 -271 27 -271 c 2
 -53 -271 l 1
 -53 -211 l 1xf0
 25 -211 l 2
 162 -211 162 -149 162 -34 c 2xe8
192 1205 m 0
 234 1205 254 1177 254 1148 c 0
 254 1121 233 1092 192 1092 c 0
 150 1092 130 1121 130 1148 c 0
 130 1177 150 1205 192 1205 c 0
EndSplineSet
EndChar

StartChar: k
Encoding: 107 107 95
Width: 1124
Flags: MW
HStem: 0 78 779 81 1152 82
VStem: 102 256 102 369 292 66 617 448 624 441
LayerCount: 2
Fore
SplineSet
280 1174 m 1
 94 1174 l 1
 94 1234 l 1
 359 1234 l 1
 359 454 l 1
 753 776 l 1
 629 776 l 1
 629 836 l 1
 1014 836 l 1
 1014 776 l 1
 855 776 l 1
 452 439 l 1
 898 60 l 1
 1049 60 l 1
 1049 0 l 1
 666 0 l 1
 666 60 l 1
 789 60 l 1
 359 431 l 1
 359 60 l 1
 543 60 l 1
 543 0 l 1
 94 0 l 1
 94 60 l 1
 280 60 l 1
 280 1174 l 1
EndSplineSet
EndChar

StartChar: l
Encoding: 108 108 96
Width: 612
Flags: MW
HStem: 0 78 1152 82
VStem: 65 252 65 406 251 66
LayerCount: 2
Fore
SplineSet
280 1174 m 1
 94 1174 l 1
 94 1234 l 1
 359 1234 l 1
 359 60 l 1
 543 60 l 1
 543 0 l 1
 94 0 l 1
 94 60 l 1
 280 60 l 1
 280 1174 l 1
EndSplineSet
EndChar

StartChar: m
Encoding: 109 109 97
Width: 1659
Flags: MW
HStem: 0 78 791 81
VStem: 102 233 102 383 265 70 793 71 1324 61
LayerCount: 2
Fore
SplineSet
265 779 m 1
 92 779 l 1
 92 836 l 1
 332 836 l 1
 341 736 l 1
 469 815 541 854 661 854 c 0
 769 854 829 797 858 727 c 1
 871 736 l 1
 1000 815 1075 854 1195 854 c 0
 1358 854 1412 726 1412 617 c 2
 1412 60 l 1
 1588 60 l 1
 1588 0 l 1
 1176 0 l 1
 1176 60 l 1
 1333 60 l 1
 1333 601 l 2
 1333 704 1312 787 1188 787 c 0
 1063 787 973 726 875 664 c 1
 877 648 878 632 878 617 c 2
 878 60 l 1
 1054 60 l 1
 1054 0 l 1
 642 0 l 1
 642 60 l 1
 799 60 l 1
 799 601 l 2
 799 704 778 787 654 787 c 0
 529 787 443 726 344 664 c 1
 344 60 l 1
 500 60 l 1
 500 0 l 1
 103 0 l 1
 103 60 l 1
 265 60 l 1
 265 779 l 1
EndSplineSet
EndChar

StartChar: n
Encoding: 110 110 98
Width: 1202
Flags: MW
HStem: 0 60<100 281 361 543 100 281 722 879 958 1133> 787 67<640 774>
VStem: 100 261<0 668 60 668> 100 443<0 60 0 60> 281 76<736 736 736 779 736 779> 879 79<60 601 601 617 60 652.5>
LayerCount: 2
Fore
SplineSet
281 779 m 1xcc
 101 779 l 1
 101 836 l 1
 349 836 l 1
 357 736 l 1xcc
 482 820 575 854 705 854 c 0
 897 854 958 726 958 617 c 2
 958 60 l 1
 1133 60 l 1
 1133 0 l 1
 722 0 l 1
 722 60 l 1
 879 60 l 1
 879 601 l 2
 879 704 850 787 698 787 c 0
 563 787 469 743 361 668 c 1
 361 60 l 1xe4
 543 60 l 1
 543 0 l 1xd4
 100 0 l 1
 100 60 l 1xe4
 281 60 l 1
 281 779 l 1xcc
EndSplineSet
EndChar

StartChar: o
Encoding: 111 111 99
Width: 1004
Flags: MW
HStem: -22 77 791 81
VStem: 57 82<301 542.5 301 565> 879 80<301 542.5>
LayerCount: 2
Fore
SplineSet
879 424 m 0
 879 661 692 787 506 787 c 0
 321 787 139 661 139 424 c 0
 139 178 321 53 506 53 c 0
 692 53 879 178 879 424 c 0
959 424 m 0
 959 134 732 -14 506 -14 c 0
 281 -14 57 136 57 424 c 0
 57 706 279 854 506 854 c 0
 731 854 959 709 959 424 c 0
EndSplineSet
EndChar

StartChar: p
Encoding: 112 112 100
Width: 1120
Flags: MW
HStem: -322 0<53 53 428 428> 221 494<281 281> 414 426
VStem: 53 0<-322 -322 -262 -262> 202 226<-322 780> 268 376 281 362
LayerCount: 2
Fore
SplineSet
428 -322 m 1xd8
 53 -322 l 1
 53 -262 l 1
 202 -262 l 1
 202 780 l 1xb8
 37 780 l 1
 37 840 l 1
 268 840 l 1xb4
 281 715 l 1
 328 767 478 854 643 854 c 0
 962 854 1079 600 1079 406 c 0
 1079 196 926 -14 640 -14 c 0
 490 -14 356 56 281 145 c 1
 281 -262 l 1xd2
 428 -262 l 1
 428 -322 l 1xd8
1000 414 m 0
 1000 595 886 787 646 787 c 0
 524 787 426 758 281 647 c 1
 281 221 l 1xd2
 415 84 517 53 644 53 c 0xd4
 864 53 1000 216 1000 414 c 0
EndSplineSet
EndChar

StartChar: q
Encoding: 113 113 101
Width: 1141
Flags: MW
HStem: -262 315<382 855 382 855> -14 801<371 551.5 371 572> 715 125<855 1099>
VStem: 137 718<315 504.5> 708 227<-322 780 -262 780> 708 375<-322 -262 -322 -262> 855 244<163 840 647 840 715 840>
LayerCount: 2
Fore
SplineSet
1083 -322 m 1xa4
 708 -322 l 1
 708 -262 l 1xa8
 855 -262 l 1xb0
 855 97 l 1
 780 36 647 -14 497 -14 c 0x50
 210 -14 57 196 57 406 c 0
 57 600 174 854 493 854 c 0
 659 854 809 767 855 715 c 1
 869 840 l 1
 1099 840 l 1
 1099 780 l 1xa2
 935 780 l 1
 935 -262 l 1xa8
 1083 -262 l 1
 1083 -322 l 1xa4
137 414 m 0x50
 137 216 272 53 492 53 c 0xb0
 619 53 721 65 855 163 c 1
 855 647 l 1
 710 758 612 787 491 787 c 0
 251 787 137 595 137 414 c 0x50
EndSplineSet
EndChar

StartChar: r
Encoding: 114 114 102
Width: 748
Flags: MW
HStem: 0 60<100 284 363 546 100 284> 774 74 779 69
VStem: 101 250<779 836 836 836> 284 67<60 836 779 836> 284 79<60 468>
LayerCount: 2
Fore
SplineSet
363 60 m 1xc4
 546 60 l 1
 546 0 l 1
 100 0 l 1
 100 60 l 1
 284 60 l 1
 284 779 l 1xa8
 101 779 l 1xb0
 101 836 l 1
 351 836 l 1xd0
 363 652 l 1
 396 774 478 854 591 854 c 0
 640 854 696 841 756 814 c 1
 744 746 l 1
 689 773 636 787 590 787 c 0
 456 787 363 670 363 468 c 2
 363 60 l 1xc4
EndSplineSet
EndChar

StartChar: s
Encoding: 115 115 103
Width: 874
Flags: MW
HStem: -10 21G 0 53 0 268<129 197 129 197> 572 281<355 754 355 684>
VStem: 133 82<537.5 680 494.5 702> 684 70<572 695 695 695 776 836 572 836> 731 80<165 281>
LayerCount: 2
Fore
SplineSet
129 0 m 1x5a
 129 268 l 1
 197 268 l 1x3c
 197 168 l 1
 234 91 363 53 480 53 c 0x5c
 610 53 731 109 731 221 c 0x9a
 731 341 647 379 486 397 c 0
 291 419 133 455 133 620 c 0
 133 784 280 853 430 853 c 0
 526 853 622 832 684 776 c 1
 684 836 l 1
 754 836 l 1
 754 572 l 1
 684 572 l 1
 684 695 l 1x9c
 637 754 541 786 449 786 c 0
 330 786 215 737 215 623 c 0
 215 366 811 590 811 223 c 0
 811 62 640 -14 475 -14 c 0
 364 -14 255 14 197 73 c 1
 197 0 l 1
 129 0 l 1x5a
EndSplineSet
EndChar

StartChar: t
Encoding: 116 116 104
Width: 547
Flags: MW
HStem: 0 60<268.5 456 378 456 378 456> 781 55<37 162 37 162 241 440> 1146 20G<241 241>
VStem: 162 79<250 781 836 1148 1148 1148> 162 294<0 781>
LayerCount: 2
Fore
SplineSet
162 781 m 1xe8
 37 781 l 1
 37 836 l 1
 162 836 l 1
 162 1148 l 1
 241 1166 l 1
 241 836 l 1
 440 836 l 1
 440 781 l 1
 241 781 l 1
 241 238 l 2xf0
 241 122 241 60 378 60 c 2
 456 60 l 1
 456 0 l 1
 375 0 l 2
 162 0 162 128 162 250 c 2
 162 781 l 1xe8
EndSplineSet
EndChar

StartChar: u
Encoding: 117 117 105
Width: 1102
Flags: MW
HStem: -22 77 -14 21G<351 514.5> 779 81
VStem: 71 202 590 252
LayerCount: 2
Fore
SplineSet
863 58 m 1xb8
 1036 58 l 1
 1036 0 l 1
 796 0 l 1
 788 104 l 1
 655 25 577 -14 452 -14 c 0x78
 250 -14 189 114 189 223 c 2
 189 776 l 1
 14 776 l 1
 14 836 l 1
 268 836 l 1
 268 239 l 2
 268 136 297 53 459 53 c 0
 589 53 682 110 784 173 c 1
 784 776 l 1
 610 776 l 1
 610 836 l 1
 863 836 l 1
 863 58 l 1xb8
EndSplineSet
EndChar

StartChar: v
Encoding: 118 118 106
Width: 1032
Flags: MW
HStem: 0 21G<477 567 477 477> 779 81
LayerCount: 2
Fore
SplineSet
369 776 m 1
 217 776 l 1
 519 71 l 1
 797 776 l 1
 654 776 l 1
 654 836 l 1
 1046 836 l 1
 1046 776 l 1
 887 776 l 1
 567 0 l 1
 477 0 l 1
 135 776 l 1
 -29 776 l 1
 -29 836 l 1
 369 836 l 1
 369 776 l 1
EndSplineSet
EndChar

StartChar: w
Encoding: 119 119 107
Width: 1554
Flags: MW
HStem: 0 21G<419 509 419 419 1037 1127 1037 1037> 779 81
VStem: 48 377 626 440 1290 444
LayerCount: 2
Fore
SplineSet
370 776 m 1
 217 776 l 1
 463 65 l 1
 724 776 l 1
 581 776 l 1
 581 836 l 1
 961 836 l 1
 961 776 l 1
 815 776 l 1
 1078 65 l 1
 1316 776 l 1
 1174 776 l 1
 1174 836 l 1
 1566 836 l 1
 1566 776 l 1
 1406 776 l 1
 1127 0 l 1
 1037 0 l 1
 774 710 l 1
 509 0 l 1
 419 0 l 1
 139 776 l 1
 -25 776 l 1
 -25 836 l 1
 370 836 l 1
 370 776 l 1
EndSplineSet
EndChar

StartChar: x
Encoding: 120 120 108
Width: 1182
Flags: MW
HStem: 0 78 779 81
VStem: 91 426 701 376
LayerCount: 2
Fore
SplineSet
484 776 m 1
 327 776 l 1
 577 481 l 1
 824 776 l 1
 676 776 l 1
 676 836 l 1
 1073 836 l 1
 1073 776 l 1
 914 776 l 1
 623 426 l 1
 933 60 l 1
 1084 60 l 1
 1084 0 l 1
 689 0 l 1
 689 60 l 1
 853 60 l 1
 584 378 l 1
 321 60 l 1
 459 60 l 1
 459 0 l 1
 76 0 l 1
 76 60 l 1
 226 60 l 1
 537 433 l 1
 249 776 l 1
 100 776 l 1
 100 836 l 1
 484 836 l 1
 484 776 l 1
EndSplineSet
EndChar

StartChar: y
Encoding: 121 121 109
Width: 1026
Flags: MW
HStem: -282 131 779 81
LayerCount: 2
Fore
SplineSet
139 -274 m 1
 139 -206 l 1
 157 -206 175 -206 192 -206 c 0
 308 -206 395 -200 437 -104 c 2
 507 58 l 1
 451 58 l 1
 131 776 l 1
 -33 776 l 1
 -33 836 l 1
 366 836 l 1
 366 776 l 1
 218 776 l 1
 517 89 l 1
 793 776 l 1
 650 776 l 1
 650 836 l 1
 1043 836 l 1
 1043 776 l 1
 884 776 l 1
 510 -127 l 2
 448 -277 319 -274 139 -274 c 1
EndSplineSet
EndChar

StartChar: z
Encoding: 122 122 110
Width: 909
Flags: MW
HStem: 0 58<196 714 196 783> 0 277<714 783 714 783> 583 253<142 211 142 765> 776 60<211 682 211 211>
VStem: 142 69<583 776 583 836 583 836> 714 69<58 277>
LayerCount: 2
Fore
SplineSet
783 0 m 1x6c
 106 0 l 1
 106 67 l 1
 682 776 l 1
 211 776 l 1x5c
 211 583 l 1
 142 583 l 1
 142 836 l 1
 765 836 l 1
 765 764 l 1
 196 58 l 1
 714 58 l 1xac
 714 277 l 1
 783 277 l 1
 783 0 l 1x6c
EndSplineSet
EndChar

StartChar: braceleft
Encoding: 123 123 111
Width: 555
Flags: MW
HStem: -23 0<410 410 475 475> 574 42 1201 54<410 475 410 475>
VStem: 164 246 164 311
LayerCount: 2
Fore
SplineSet
68 574 m 1xf0
 68 658 l 1
 216 658 216 719 216 908 c 0
 216 1110 210 1255 410 1255 c 2xf0
 475 1255 l 1
 475 1201 l 1
 334 1201 301 1175 301 1004 c 0
 301 756 288 623 164 616 c 1
 288 608 301 476 301 228 c 0
 301 58 334 31 475 31 c 1
 475 -23 l 1xe8
 410 -23 l 2
 221 -23 216 106 216 290 c 0
 216 507 224 574 68 574 c 1xf0
EndSplineSet
EndChar

StartChar: bar
Encoding: 124 124 112
Width: 426
Flags: MW
HStem: -23 21G<178 178 178 246> 1235 20G<178 246 246 246>
VStem: 178 68<-23 1255 -23 1255>
LayerCount: 2
Fore
SplineSet
178 -23 m 1
 178 1255 l 1
 246 1255 l 1
 246 -23 l 1
 178 -23 l 1
EndSplineSet
EndChar

StartChar: braceright
Encoding: 125 125 113
Width: 557
Flags: MW
HStem: -335 115 287 120 917 109
VStem: 14 294 172 136
LayerCount: 2
Fore
SplineSet
493 658 m 1
 493 574 l 1
 346 574 346 514 346 324 c 0
 346 122 352 -23 151 -23 c 2
 86 -23 l 1
 86 31 l 1
 228 31 260 58 260 228 c 0
 260 476 274 608 397 616 c 1
 274 623 260 756 260 1004 c 0
 260 1175 228 1201 86 1201 c 1
 86 1255 l 1
 151 1255 l 2
 341 1255 346 1126 346 941 c 0
 346 726 338 658 493 658 c 1
EndSplineSet
EndChar

StartChar: asciitilde
Encoding: 126 126 114
Width: 788
Flags: MW
HStem: 481 112 646 90
LayerCount: 2
Fore
SplineSet
163 1028 m 1
 125 1028 l 1
 135 1118 186 1157 249 1157 c 0
 364 1157 462 1110 550 1110 c 0
 587 1110 615 1126 624 1153 c 1
 661 1153 l 1
 652 1072 609 1022 537 1022 c 0
 409 1022 313 1069 222 1069 c 0
 186 1069 171 1055 163 1028 c 1
EndSplineSet
EndChar

StartChar: exclamdown
Encoding: 161 161 115
Width: 430
Flags: MW
HStem: -129 20G 990 181
VStem: 90 133
LayerCount: 2
Fore
SplineSet
164 1066 m 1
 164 1171 l 1
 269 1171 l 1
 269 1066 l 1
 164 1066 l 1
200 827 m 1
 231 827 l 1
 260 362 l 1
 260 0 l 1
 164 0 l 1
 164 362 l 1
 200 827 l 1
EndSplineSet
EndChar

StartChar: cent
Encoding: 162 162 116
Width: 950
Flags: MW
HStem: -422 21G -214 21G<268 331 268 268> -26 153 -14 67 600 254 620 384 787 67<498 509> 1044 20G<640 698 698 698> 1408 20G
VStem: 50 78 55 82<331 537.5 331 542>
LayerCount: 2
Fore
SplineSet
494 -14 m 1xd5c0
 459 -13 425 -9 392 -1 c 1
 331 -214 l 1
 268 -214 l 1
 335 15 l 1
 176 75 55 219 55 416 c 0xe5a0
 55 668 223 850 498 854 c 0
 526 854 552 851 577 847 c 1
 640 1064 l 1
 698 1064 l 1
 632 834 l 1
 694 815 739 783 760 750 c 1
 760 860 l 1
 836 860 l 1
 836 600 l 1
 770 600 l 1xe9c0
 763 669 723 743 614 773 c 1
 411 65 l 1
 439 58 468 54 498 54 c 0
 625 54 756 110 842 222 c 1
 865 149 l 1
 751 35 617 -14 494 -14 c 1xd5c0
137 413 m 0xe5a0
 137 249 230 134 355 83 c 1
 558 783 l 1
 540 785 520 787 498 787 c 0xe3c0
 311 787 137 662 137 413 c 0xe5a0
EndSplineSet
EndChar

StartChar: sterling
Encoding: 163 163 117
Width: 1096
Flags: MW
HStem: -22 94 -22 284 562 97 968 287<533 959 533 883>
VStem: 108 69 291 87<891 1031.5 891 1037.5> 883 76<968 1032.5> 984 31 1229 67
LayerCount: 2
Fore
SplineSet
481 204 m 1xbf80
 487 236 491 269 491 301 c 0
 491 392 467 480 432 562 c 1
 184 562 l 1
 184 611 l 1
 407 611 l 1
 353 714 291 828 291 937 c 0
 291 1138 424 1255 642 1255 c 0
 849 1255 959 1146 959 968 c 1
 883 968 l 1
 883 1097 820 1189 649 1189 c 0
 473 1189 378 1109 378 954 c 0
 378 828 443 734 507 611 c 1
 882 611 l 1
 882 562 l 1
 523 562 l 1
 552 480 569 402 569 324 c 0
 569 269 561 212 543 156 c 1
 604 78 690 44 780 44 c 0
 923 44 965 148 965 262 c 1
 1015 262 l 1x7f80
 1017 247 1018 233 1018 218 c 0
 1018 78 941 -29 785 -29 c 0
 688 -29 597 12 526 107 c 1
 467 -32 309 -47 262 -47 c 0
 113 -47 49 31 49 120 c 0
 49 245 159 300 267 300 c 0
 351 300 436 265 481 204 c 1xbf80
119 120 m 0
 119 41 187 7 258 7 c 0
 346 7 443 55 466 154 c 1
 420 211 343 244 271 244 c 0
 193 244 119 209 119 120 c 0
EndSplineSet
EndChar

StartChar: currency
Encoding: 164 164 118
Width: 1073
Flags: MW
HStem: 565 21G 609 105 1261 111 1392 20G
VStem: 167 146 796 142
LayerCount: 2
Fore
SplineSet
242 982 m 0
 242 772 397 662 552 662 c 0
 709 662 867 768 867 982 c 0
 867 1196 709 1302 552 1302 c 0
 397 1302 242 1192 242 982 c 0
268 712 m 1
 202 785 169 881 169 978 c 0
 169 1075 202 1174 268 1252 c 1
 166 1353 l 1
 223 1402 l 1
 320 1299 l 1
 398 1345 474 1368 550 1368 c 0
 630 1368 710 1344 796 1297 c 1
 893 1403 l 1
 945 1353 l 1
 840 1250 l 1
 902 1168 933 1076 933 984 c 0
 933 892 902 800 840 714 c 1
 945 611 l 1
 893 561 l 1
 796 667 l 1
 715 620 635 596 554 596 c 0
 477 596 399 618 320 665 c 1
 223 562 l 1
 166 611 l 1
 268 712 l 1
EndSplineSet
EndChar

StartChar: yen
Encoding: 165 165 119
Width: 1266
Flags: MW
HStem: 0 78 0 124 356 141 604 142 961 78 1152 82 1260 124 1454 78
VStem: 423 192 512 52
LayerCount: 2
Fore
SplineSet
1014 288 m 1
 1014 226 l 1
 678 226 l 1
 678 62 l 1
 838 62 l 1
 838 0 l 1
 435 0 l 1
 435 62 l 1
 596 62 l 1
 596 226 l 1
 265 226 l 1
 265 288 l 1
 596 288 l 1
 596 433 l 1
 265 433 l 1
 265 496 l 1
 560 496 l 1
 154 1171 l 1
 -4 1171 l 1
 -4 1234 l 1
 399 1234 l 1
 399 1171 l 1
 242 1171 l 1
 639 508 l 1
 1029 1171 l 1
 870 1171 l 1
 870 1234 l 1
 1273 1234 l 1
 1273 1171 l 1
 1117 1171 l 1
 714 496 l 1
 1014 496 l 1
 1014 433 l 1
 678 433 l 1
 678 288 l 1
 1014 288 l 1
EndSplineSet
EndChar

StartChar: brokenbar
Encoding: 166 166 120
Width: 414
Flags: MW
HStem: 470 21G 1214 20G
VStem: 416 146
LayerCount: 2
Fore
SplineSet
172 715 m 1
 172 1255 l 1
 240 1255 l 1
 240 715 l 1
 172 715 l 1
172 -23 m 1
 172 517 l 1
 240 517 l 1
 172 -23 l 1
 172 -23 l 1
EndSplineSet
EndChar

StartChar: section
Encoding: 167 167 121
Width: 963
Flags: MW
HStem: 0 53 572 281
VStem: 156 82<538.5 651 902 991.5> 707 70<896 983 983 983 1064 1124 896 1124> 754 80<571 653>
LayerCount: 2
Fore
SplineSet
834 571 m 1xe8
 833 500 792 442 730 407 c 1
 790 372 826 314 826 248 c 0
 826 144 735 37 498 37 c 0
 387 37 278 66 220 125 c 1
 220 52 l 1
 152 52 l 1
 152 283 l 1
 220 283 l 1
 220 220 l 1
 257 143 386 104 503 104 c 0
 666 104 749 176 749 248 c 0
 749 490 156 306 156 612 c 0
 156 690 198 749 261 782 c 1
 196 815 156 860 156 944 c 0
 156 1082 303 1141 453 1141 c 0
 549 1141 645 1120 707 1064 c 1
 707 1124 l 1
 777 1124 l 1
 777 896 l 1
 707 896 l 1
 707 983 l 1xf0
 660 1043 564 1074 472 1074 c 0
 353 1074 238 1036 238 947 c 0
 238 704 834 905 834 571 c 1xe8
754 569 m 0
 754 737 470 714 324 758 c 1
 276 739 238 689 238 614 c 0
 238 463 490 481 674 439 c 1
 725 461 754 510 754 569 c 0
EndSplineSet
EndChar

StartChar: dieresis
Encoding: 168 168 122
Width: 608
Flags: MW
HStem: 1188 260
VStem: 75 270 559 269
LayerCount: 2
Fore
SplineSet
373 1046 m 1
 473 1046 l 1
 473 940 l 1
 373 940 l 1
 373 1046 l 1
131 1046 m 1
 231 1046 l 1
 231 940 l 1
 131 940 l 1
 131 1046 l 1
EndSplineSet
EndChar

StartChar: copyright
Encoding: 169 169 123
Width: 1458
Flags: MW
HStem: -23 94 -22 27 236 51 306 44 764 208 876 48 1224 32
VStem: 80 26 161 62 405 44 1269 31
LayerCount: 2
Fore
SplineSet
727 241 m 1x77e0
 533 244 357 385 357 602 c 0
 357 815 499 967 730 972 c 1x7be0
 837 972 915 937 945 895 c 1
 945 977 l 1
 1016 977 l 1
 1016 754 l 1
 955 754 l 1
 946 828 893 910 730 910 c 0
 577 910 433 805 433 600 c 0
 433 419 575 305 730 305 c 0
 835 305 946 353 1018 448 c 1
 1040 379 l 1
 944 282 830 241 727 241 c 1x77e0
728 1199 m 0
 349 1199 158 904 158 617 c 0
 158 318 344 34 728 34 c 0
 1105 34 1299 328 1299 617 c 0
 1299 904 1103 1199 728 1199 c 0
728 -23 m 0xb7e0
 301 -23 86 296 86 616 c 0
 86 937 303 1258 728 1258 c 0
 1155 1258 1370 937 1370 616 c 0
 1370 296 1157 -23 728 -23 c 0xb7e0
EndSplineSet
EndChar

StartChar: ordfeminine
Encoding: 170 170 124
Width: 805
Flags: MW
HStem: 314 88 594 80 641 21G<259 367> 650 56 650 60<604 710 604 710> 846 98 932 64<346.5 406 318 415> 1192 63<334 424>
VStem: 63 109 123 74<791.5 876 791.5 898.5> 456 122 531 73<772 917 917 917 978 1055 1055 1067 710 1106.5>
LayerCount: 2
Fore
SplineSet
328 641 m 0xa5a0
 190 641 123 725 123 818 c 0xc560
 123 979 255 996 381 996 c 0xc3a0
 431 996 479 988 531 978 c 1
 531 1055 l 2
 531 1158 472 1192 376 1192 c 0
 292 1192 227 1169 183 1123 c 1
 147 1181 l 1
 203 1235 282 1255 377 1255 c 0
 564 1255 604 1145 604 1067 c 2
 604 710 l 1x8d90
 710 710 l 1x8da0
 710 650 l 1
 542 650 l 1x95a0
 533 708 l 1
 471 666 406 641 328 641 c 0xa5a0
531 772 m 1xc590
 531 917 l 1xc590
 509 922 443 932 387 932 c 0xc3a0
 306 932 197 935 197 817 c 0xc560
 197 766 231 706 335 706 c 0x95a0
 410 706 474 721 531 772 c 1xc590
EndSplineSet
EndChar

StartChar: guillemotleft
Encoding: 171 171 125
Width: 778
Flags: MW
HStem: 644 20G<76 76 184 184 343 343 451 451>
VStem: 76 588<281 664>
LayerCount: 2
Fore
SplineSet
343 664 m 1
 616 1043 l 1
 664 1043 l 1
 451 664 l 1
 664 281 l 1
 616 281 l 1
 343 664 l 1
76 664 m 1
 348 1043 l 1
 396 1043 l 1
 184 664 l 1
 396 281 l 1
 348 281 l 1
 76 664 l 1
EndSplineSet
EndChar

StartChar: logicalnot
Encoding: 172 172 126
Width: 987
Flags: MW
HStem: 304 21G<761 838 761 761> 617 80<100 761 100 838>
VStem: 761 77<304 617 617 617>
LayerCount: 2
Fore
SplineSet
100 697 m 1
 838 697 l 1
 838 304 l 1
 761 304 l 1
 761 617 l 1
 100 617 l 1
 100 697 l 1
EndSplineSet
EndChar

StartChar: registered
Encoding: 174 174 128
Width: 1458
Flags: MW
HStem: -22 94 227 86 580 64 887 91 1152 100
VStem: 95 104 465 49 497 63 887 74 1201 110
LayerCount: 2
Fore
SplineSet
411 258 m 1xfec0
 411 316 l 1
 497 316 l 1
 497 931 l 1xfdc0
 404 931 l 1
 404 988 l 1
 782 988 l 2
 926 988 998 888 998 790 c 0
 998 695 933 598 802 590 c 1
 970 316 l 1
 1072 316 l 1
 1072 258 l 1
 921 258 l 1
 724 590 l 1
 566 590 l 1
 566 316 l 1
 662 316 l 1
 662 258 l 1
 411 258 l 1xfec0
566 931 m 1
 566 648 l 1
 782 648 l 2
 880 648 933 718 933 787 c 0
 933 859 881 931 782 931 c 2
 566 931 l 1
728 1199 m 0
 349 1199 158 904 158 617 c 0
 158 318 344 34 728 34 c 0
 1105 34 1299 328 1299 617 c 0
 1299 904 1103 1199 728 1199 c 0
728 -23 m 0
 301 -23 86 296 86 616 c 0
 86 937 303 1258 728 1258 c 0
 1155 1258 1370 937 1370 616 c 0
 1370 296 1157 -23 728 -23 c 0
EndSplineSet
EndChar

StartChar: macron
Encoding: 175 175 129
Width: 662
Flags: MW
HStem: 1058 65<131 522 131 522>
LayerCount: 2
Fore
SplineSet
131 1058 m 1
 131 1123 l 1
 522 1123 l 1
 522 1058 l 1
 131 1058 l 1
EndSplineSet
EndChar

StartChar: degree
Encoding: 176 176 130
Width: 813
Flags: MW
HStem: 769 107 1235 103
VStem: 122 117 603 117
LayerCount: 2
Fore
SplineSet
413 1239 m 0
 299 1239 217 1166 217 1052 c 0
 217 938 299 865 413 865 c 0
 527 865 609 938 609 1052 c 0
 609 1166 527 1239 413 1239 c 0
413 768 m 0
 264 768 106 863 106 1052 c 0
 106 1241 264 1336 413 1336 c 0
 562 1336 720 1241 720 1052 c 0
 720 863 562 768 413 768 c 0
EndSplineSet
EndChar

StartChar: plusminus
Encoding: 177 177 131
Width: 901
Flags: MW
HStem: 534 64<68 424 68 424 486 842 68 486>
VStem: 424 62<138 534 138 534 598 982>
LayerCount: 2
Fore
SplineSet
840 0 m 1
 840 62 l 1
 66 62 l 1
 66 0 l 1
 840 0 l 1
486 982 m 1
 486 598 l 1
 842 598 l 1
 842 534 l 1
 486 534 l 1
 486 138 l 1
 424 138 l 1
 424 534 l 1
 68 534 l 1
 68 598 l 1
 424 598 l 1
 424 982 l 1
 486 982 l 1
EndSplineSet
EndChar

StartChar: twosuperior
Encoding: 178 178 132
Width: 811
Flags: MW
HStem: 0 72<241 639 241 639> 166 93 535 346<159 497 159 497> 812 69<361 476>
VStem: 30 81 159 78<535 535> 410 77 602 78<548.5 692> 620 72
LayerCount: 2
Fore
SplineSet
639 0 m 1xee80
 133 0 l 1
 133 70 l 1
 206 143 602 462 602 635 c 0xef
 602 749 534 812 418 812 c 0xde80
 304 812 224 740 224 624 c 0
 224 598 230 565 237 535 c 1
 159 535 l 1
 153 564 151 593 151 623 c 0
 151 786 264 881 420 881 c 0
 574 881 680 791 680 635 c 0xef
 680 449 360 191 241 72 c 1
 639 72 l 1
 639 0 l 1xee80
EndSplineSet
EndChar

StartChar: threesuperior
Encoding: 179 179 133
Width: 811
Flags: MW
HStem: -16 69 155 87 424 74<284 318 318 320 284 318> 485 81 625 257 661 217 812 70<341 432.5>
VStem: 88 72 284 390 393 70 597 77
LayerCount: 2
Fore
SplineSet
175 702 m 1xd560
 109 732 l 1
 165 841 274 882 384 882 c 0xd960
 520 882 667 799 667 648 c 0
 667 560 614 496 538 464 c 1
 628 431 682 348 682 250 c 0
 682 90 535 -13 384 -13 c 0
 265 -13 148 46 92 161 c 1
 152 200 l 1
 200 101 289 53 390 53 c 0
 502 53 606 132 606 248 c 0
 606 415 451 424 320 424 c 2
 284 424 l 1
 284 498 l 1xe580
 318 498 l 2
 327 498 337 498 347 498 c 0xe560
 458 498 589 508 589 648 c 0
 589 758 483 812 382 812 c 0xd360
 300 812 219 786 175 702 c 1xd560
EndSplineSet
EndChar

StartChar: acute
Encoding: 180 180 134
Width: 414
Flags: MW
HStem: 985 249<125 310 125 310>
LayerCount: 2
Fore
SplineSet
156 985 m 1
 125 985 l 1
 184 1234 l 1
 310 1234 l 1
 156 985 l 1
EndSplineSet
EndChar

StartChar: mu
Encoding: 181 181 135
AltUni2: 0003bc.ffffffff.0
Width: 1190
Flags: MW
HStem: -470 525 -14 21G<480.5 584.5> 0 55 779 81
VStem: 71 201 589 252 843 69
LayerCount: 2
Fore
SplineSet
933 58 m 1x9e
 1106 58 l 1
 1106 0 l 1
 866 0 l 1x3e
 858 104 l 1
 725 25 647 -14 522 -14 c 0x5e
 439 -14 380 7 339 40 c 1
 339 -232 l 1
 259 -232 l 1
 259 776 l 1
 84 776 l 1
 84 836 l 1
 338 836 l 1
 339 208 l 1
 345 119 383 53 529 53 c 0
 659 53 752 110 854 173 c 1
 854 776 l 1
 680 776 l 1
 680 836 l 1
 933 836 l 1
 933 58 l 1x9e
EndSplineSet
EndChar

StartChar: paragraph
Encoding: 182 182 136
Width: 1020
Flags: MW
HStem: -303 21G 0 62 517 65 1171 63<790 956 790 790> 1216 151
VStem: -94 595 709 81<-23 661 661 661> 793 84
LayerCount: 2
Fore
SplineSet
709 -23 m 1xef
 709 661 l 1
 513 661 l 1
 513 -23 l 1
 432 -23 l 1
 432 661 l 1
 396 661 l 2
 172 661 57 810 57 955 c 0
 57 1094 172 1234 396 1234 c 2
 956 1234 l 1
 956 1171 l 1
 790 1171 l 1xf7
 790 -23 l 1
 709 -23 l 1xef
EndSplineSet
EndChar

StartChar: periodcentered
Encoding: 183 183 137
Width: 369
Flags: MW
HStem: 535 253
VStem: 148 273
LayerCount: 2
Fore
SplineSet
125 815 m 1
 242 815 l 1
 242 695 l 1
 125 695 l 1
 125 815 l 1
EndSplineSet
EndChar

StartChar: cedilla
Encoding: 184 184 138
Width: 430
Flags: MW
HStem: -281 58 -14 20G<189 239 239 239>
VStem: 232 108
LayerCount: 2
Fore
SplineSet
100 -256 m 1
 100 -210 l 1
 113 -214 152 -224 183 -224 c 0
 209 -224 232 -217 232 -192 c 0
 232 -166 189 -149 131 -144 c 1
 189 6 l 1
 239 6 l 1
 200 -108 l 1
 212 -108 l 2
 293 -108 336 -152 336 -197 c 0
 336 -236 299 -276 220 -276 c 0
 174 -276 128 -266 100 -256 c 1
EndSplineSet
EndChar

StartChar: onesuperior
Encoding: 185 185 139
Width: 551
Flags: MW
HStem: 0 72 164 78 785 81 792 74
VStem: 52 168 133 191 156 64 259 65
LayerCount: 2
Fore
SplineSet
322 61 m 1
 439 61 l 1
 439 0 l 1
 127 0 l 1
 127 61 l 1
 248 61 l 1
 248 787 l 1
 144 767 l 1
 127 832 l 1
 322 869 l 1
 322 61 l 1
EndSplineSet
EndChar

StartChar: ordmasculine
Encoding: 186 186 140
Width: 874
Flags: MW
HStem: -16 72 484 97 840 97
VStem: 117 74<869 1029.5 869 1050.5> 126 111 502 112 681 74<869 1029.5>
LayerCount: 2
Fore
SplineSet
681 950 m 0xee
 681 1109 557 1192 435 1192 c 0
 312 1192 191 1109 191 950 c 0xf6
 191 788 312 706 435 706 c 0
 557 706 681 788 681 950 c 0xee
755 950 m 0
 755 746 594 641 435 641 c 0
 275 641 117 746 117 950 c 0
 117 1151 274 1255 435 1255 c 0
 594 1255 755 1153 755 950 c 0
EndSplineSet
EndChar

StartChar: guillemotright
Encoding: 187 187 141
Width: 778
Flags: MW
HStem: 644 20G<329 329 437 437 597 597 705 705>
VStem: 117 588<281 664 664 1043>
LayerCount: 2
Fore
SplineSet
165 1043 m 1
 437 664 l 1
 165 281 l 1
 117 281 l 1
 329 664 l 1
 117 1043 l 1
 165 1043 l 1
432 1043 m 1
 705 664 l 1
 432 281 l 1
 384 281 l 1
 597 664 l 1
 384 1043 l 1
 432 1043 l 1
EndSplineSet
EndChar

StartChar: onequarter
Encoding: 188 188 142
Width: 1348
Flags: MW
HStem: 0 61<962 1074 1147 1259 962 1074> 260 63<807 1074 807 1074 1147 1325> 365 61<86 207 281 398 86 207> 1214 20G<281 281>
VStem: 207 74<426 1152 1152 1152> 1074 73<61 260 61 260 323 768 768 768>
LayerCount: 2
Fore
SplineSet
281 426 m 1
 398 426 l 1
 398 365 l 1
 86 365 l 1
 86 426 l 1
 207 426 l 1
 207 1152 l 1
 103 1132 l 1
 86 1197 l 1
 281 1234 l 1
 281 426 l 1
726 260 m 1
 717 316 l 1
 1055 866 l 1
 1147 866 l 1
 1147 323 l 1
 1325 323 l 1
 1325 260 l 1
 1147 260 l 1
 1147 61 l 1
 1259 61 l 1
 1259 0 l 1
 962 0 l 1
 962 61 l 1
 1074 61 l 1
 1074 260 l 1
 726 260 l 1
807 323 m 1
 1074 323 l 1
 1074 768 l 1
 983 616 896 476 807 323 c 1
409 -23 m 1
 781 1255 l 1
 852 1255 l 1
 484 -23 l 1
 409 -23 l 1
EndSplineSet
EndChar

StartChar: onehalf
Encoding: 189 189 143
Width: 1339
Flags: MW
HStem: 0 72<834 1232 834 1232> 365 61<86 207 281 398 86 207> 812 69<944.5 1057> 1214 20G<281 281>
VStem: 207 74<426 1152 1152 1152> 744 75<628 688 613 714.5> 1195 78<588.5 697.5>
LayerCount: 2
Fore
SplineSet
281 426 m 1
 398 426 l 1
 398 365 l 1
 86 365 l 1
 86 426 l 1
 207 426 l 1
 207 1152 l 1
 103 1132 l 1
 86 1197 l 1
 281 1234 l 1
 281 426 l 1
1195 640 m 0
 1195 755 1126 812 988 812 c 0
 901 812 819 749 819 627 c 0
 819 599 823 569 830 535 c 1
 752 535 l 1
 747 558 744 599 744 657 c 0
 744 772 856 881 1012 881 c 0
 1169 881 1273 790 1273 631 c 0
 1273 526 1159 370 932 164 c 0
 887 123 854 92 834 72 c 1
 1232 72 l 1
 1232 0 l 1
 726 0 l 1
 726 70 l 1
 738 82 758 100 786 125 c 0
 1059 366 1195 537 1195 640 c 0
370 -23 m 1
 742 1255 l 1
 813 1255 l 1
 445 -23 l 1
 370 -23 l 1
EndSplineSet
EndChar

StartChar: threequarters
Encoding: 190 190 144
Width: 1315
Flags: MW
HStem: 0 61<1172 1284 1357 1469 1172 1284> 260 63<1017 1284 1017 1284 1357 1535> 352 66<299.5 412.5 299.5 425> 789 74<249 283 283 285 249 283> 1177 70<297 401>
VStem: 554 78<962.5 1061.5> 571 76<554 652.5> 1284 73<61 260 61 260 323 768 768 768>
LayerCount: 2
Fore
SplineSet
503 829 m 1xdb
 599 794 647 716 647 595 c 0
 647 471 513 352 337 352 c 0
 227 352 108 412 57 526 c 1
 117 565 l 1
 164 467 244 418 355 418 c 0
 470 418 571 505 571 603 c 0
 571 702 536 737 468 768 c 0
 434 783 374 789 285 789 c 2
 249 789 l 1
 249 863 l 1
 283 863 l 2
 491 863 554 907 554 1001 c 0
 554 1122 455 1177 347 1177 c 0
 247 1177 178 1140 140 1067 c 1
 74 1097 l 1
 125 1197 217 1247 349 1247 c 0
 491 1247 632 1162 632 1002 c 0
 632 923 589 865 503 829 c 1xdb
936 260 m 1xdd
 927 316 l 1
 1265 866 l 1
 1357 866 l 1
 1357 323 l 1xfb
 1535 323 l 1
 1535 260 l 1
 1357 260 l 1
 1357 61 l 1
 1469 61 l 1
 1469 0 l 1
 1172 0 l 1
 1172 61 l 1
 1284 61 l 1
 1284 260 l 1
 936 260 l 1xdd
1017 323 m 1
 1284 323 l 1xdb
 1284 768 l 1
 1193 616 1106 476 1017 323 c 1
643 -23 m 1
 1015 1255 l 1
 1086 1255 l 1
 718 -23 l 1
 643 -23 l 1
EndSplineSet
EndChar

StartChar: questiondown
Encoding: 191 191 145
Width: 692
Flags: MW
HStem: -55 332 -23 72<296 441.5 296 445> 1144 79<354 438 354 438>
VStem: 61 77<219 406.5 219 432.5> 354 69 390 33<690.5 911> 643 72
LayerCount: 2
Fore
SplineSet
622 196 m 1x7a
 683 160 l 1
 629 32 509 -23 381 -23 c 0x7a
 209 -23 61 94 61 277 c 0
 61 588 366 505 390 911 c 1
 423 911 l 1
 423 470 138 536 138 277 c 0xb6
 138 161 214 49 378 49 c 0
 505 49 586 110 622 196 c 1x7a
354 1144 m 1
 354 1223 l 1
 438 1223 l 1
 438 1144 l 1
 354 1144 l 1
EndSplineSet
EndChar

StartChar: AE
Encoding: 198 198 152
Width: 1970
Flags: MW
HStem: 0 62<0 157 244 390 -12 157 880 1038> 504 61 580 106 912 322 1171 63<635 781 623 1645>
VStem: 310 81 1689 52 2249 118 2435 68
LayerCount: 2
Fore
SplineSet
1582 1164 m 1xf780
 918 1164 l 1
 1012 666 l 1
 1444 666 l 1
 1414 824 l 1
 1481 824 l 1
 1555 424 l 1
 1488 424 l 1
 1457 596 l 1
 1025 596 l 1
 1123 70 l 1
 1806 70 l 1
 1750 376 l 1
 1827 376 l 1
 1896 0 l 1
 868 0 l 1
 880 62 l 1
 1038 62 l 1
 961 503 l 1
 486 503 l 1
 244 62 l 1
 402 62 l 1
 390 0 l 1
 -12 0 l 1
 0 62 l 1
 157 62 l 1
 781 1171 l 1
 623 1171 l 1xef80
 635 1234 l 1
 1645 1234 l 1
 1715 858 l 1
 1638 858 l 1
 1582 1164 l 1xf780
845 1153 m 1
 519 564 l 1
 918 564 l 1
 845 1153 l 1
EndSplineSet
EndChar

StartChar: Eth
Encoding: 208 208 162
Width: 1434
Flags: MW
HStem: 0 78 511 163 597 65<109 500 109 500> 1152 82
VStem: 253 57 289 57 1175 50
LayerCount: 2
Fore
SplineSet
98 1234 m 1xda
 791 1234 l 2
 1153 1234 1336 923 1336 614 c 0
 1336 306 1154 0 791 0 c 2
 98 0 l 1
 98 62 l 1
 264 62 l 1
 264 1171 l 1
 98 1171 l 1
 98 1234 l 1xda
790 1171 m 2
 346 1171 l 1
 346 62 l 1xd6
 790 62 l 2
 1100 62 1252 338 1252 616 c 0
 1252 893 1099 1171 790 1171 c 2
109 597 m 1xba
 109 662 l 1
 500 662 l 1
 500 597 l 1
 109 597 l 1xba
EndSplineSet
EndChar

StartChar: Ntilde
Encoding: 209 209 163
Width: 1473
Flags: MW
HStem: 0 78 1152 82 1395 88 1442 41 1442 88
VStem: 142 484 1140 90
LayerCount: 2
Fore
SplineSet
570 1383 m 1
 532 1383 l 1
 542 1473 593 1512 656 1512 c 0
 742 1512 819 1465 885 1465 c 0
 922 1465 950 1481 959 1508 c 1
 996 1508 l 1
 987 1427 944 1377 872 1377 c 0
 773 1377 699 1424 629 1424 c 0
 593 1424 578 1410 570 1383 c 1
102 1234 m 1
 342 1234 l 1
 1186 125 l 1
 1186 1171 l 1
 1025 1171 l 1
 1025 1234 l 1
 1426 1234 l 1
 1426 1171 l 1
 1265 1171 l 1
 1265 0 l 1
 1186 0 l 1
 342 1114 l 1
 342 62 l 1
 503 62 l 1
 503 0 l 1
 102 0 l 1
 102 62 l 1
 263 62 l 1
 263 1171 l 1
 102 1171 l 1
 102 1234 l 1
EndSplineSet
EndChar

StartChar: Ocircumflex
Encoding: 212 212 166
Width: 1427
Flags: MW
HStem: -23 101 614 641 1295 273
VStem: 127 68 1247 68
LayerCount: 2
Fore
SplineSet
610 1377 m 1
 528 1377 l 1
 667 1650 l 1
 762 1650 l 1
 908 1377 l 1
 819 1377 l 1
 715 1601 l 1
 610 1377 l 1
718 1182 m 0
 348 1182 162 896 162 614 c 0
 162 325 344 48 718 48 c 0
 1085 48 1274 332 1274 614 c 0
 1274 896 1084 1182 718 1182 c 0
718 -23 m 0
 291 -23 78 294 78 613 c 0
 78 934 293 1255 718 1255 c 0
 1143 1255 1358 934 1358 613 c 0
 1358 294 1145 -23 718 -23 c 0
EndSplineSet
EndChar

StartChar: Otilde
Encoding: 213 213 167
Width: 1427
Flags: MW
HStem: -23 101 614 641 1395 88 1442 41 1442 88
VStem: 127 68 1247 68
LayerCount: 2
Fore
SplineSet
524 1383 m 1
 486 1383 l 1
 496 1473 547 1512 610 1512 c 0
 696 1512 773 1465 839 1465 c 0
 876 1465 904 1481 913 1508 c 1
 950 1508 l 1
 941 1427 898 1377 826 1377 c 0
 727 1377 653 1424 583 1424 c 0
 547 1424 532 1410 524 1383 c 1
718 1182 m 0
 348 1182 162 896 162 614 c 0
 162 325 344 48 718 48 c 0
 1085 48 1274 332 1274 614 c 0
 1274 896 1084 1182 718 1182 c 0
718 -23 m 0
 291 -23 78 294 78 613 c 0
 78 934 293 1255 718 1255 c 0
 1143 1255 1358 934 1358 613 c 0
 1358 294 1145 -23 718 -23 c 0
EndSplineSet
EndChar

StartChar: multiply
Encoding: 215 215 169
Width: 637
Flags: MW
HStem: 137 21G 612 20G
LayerCount: 2
Fore
SplineSet
78 768 m 1
 122 812 l 1
 325 610 l 1
 529 814 l 1
 573 769 l 1
 371 565 l 1
 573 361 l 1
 529 317 l 1
 325 521 l 1
 122 318 l 1
 78 362 l 1
 281 565 l 1
 78 768 l 1
EndSplineSet
EndChar

StartChar: Oslash
Encoding: 216 216 170
Width: 1440
Flags: MW
HStem: -28 20G<228 228> -23 101 614 641
VStem: 74 68 1195 67
LayerCount: 2
Fore
SplineSet
722 -23 m 0x78
 579 -23 460 12 365 72 c 1
 276 -42 l 1
 228 -8 l 1xb8
 317 105 l 1
 160 227 82 420 82 613 c 0
 82 934 297 1255 722 1255 c 0
 885 1255 1017 1208 1118 1131 c 1
 1204 1242 l 1
 1250 1210 l 1
 1160 1095 l 1
 1294 972 1362 792 1362 613 c 0
 1362 294 1149 -23 722 -23 c 0x78
722 1182 m 0
 352 1182 166 896 166 614 c 0
 166 441 231 272 363 165 c 1
 1069 1069 l 1
 980 1138 864 1182 722 1182 c 0
1278 614 m 0
 1278 767 1221 922 1111 1031 c 1
 411 131 l 1
 493 79 597 48 722 48 c 0
 1089 48 1278 332 1278 614 c 0
EndSplineSet
EndChar

StartChar: Ucircumflex
Encoding: 219 219 173
Width: 1421
Flags: MW
HStem: -22 100 1152 82 1292 273
VStem: 284 60 1053 143
LayerCount: 2
Fore
SplineSet
585 1377 m 1
 503 1377 l 1
 642 1650 l 1
 737 1650 l 1
 883 1377 l 1
 794 1377 l 1
 690 1601 l 1
 585 1377 l 1
1142 406 m 2
 1142 1171 l 1
 981 1171 l 1
 981 1234 l 1
 1384 1234 l 1
 1384 1171 l 1
 1224 1171 l 1
 1224 404 l 2
 1224 121 952 -23 682 -23 c 0
 422 -23 163 118 163 404 c 2
 163 1171 l 1
 2 1171 l 1
 2 1234 l 1
 405 1234 l 1
 405 1171 l 1
 244 1171 l 1
 244 406 l 2
 244 164 462 48 680 48 c 0
 910 48 1142 169 1142 406 c 2
EndSplineSet
EndChar

StartChar: Udieresis
Encoding: 220 220 174
Width: 1421
Flags: MW
HStem: -22 100 1152 82 1558 260
VStem: 284 60 371 270 855 269 1053 143
LayerCount: 2
Fore
SplineSet
764 1483 m 1
 864 1483 l 1
 864 1377 l 1
 764 1377 l 1
 764 1483 l 1
522 1483 m 1
 622 1483 l 1
 622 1377 l 1
 522 1377 l 1
 522 1483 l 1
1142 406 m 2
 1142 1171 l 1
 981 1171 l 1
 981 1234 l 1
 1384 1234 l 1
 1384 1171 l 1
 1224 1171 l 1
 1224 404 l 2
 1224 121 952 -23 682 -23 c 0
 422 -23 163 118 163 404 c 2
 163 1171 l 1
 2 1171 l 1
 2 1234 l 1
 405 1234 l 1
 405 1171 l 1
 244 1171 l 1
 244 406 l 2
 244 164 462 48 680 48 c 0
 910 48 1142 169 1142 406 c 2
EndSplineSet
EndChar

StartChar: Thorn
Encoding: 222 222 176
Width: 1130
Flags: MW
HStem: 0 62<104 257 338 508 104 257> 325 99 421 65<338 736 338 736> 947 110 1152 82
VStem: 257 81<62 421 62 486 486 979 1042 1171> 940 50
LayerCount: 2
Fore
SplineSet
338 1171 m 1xde
 338 1042 l 1
 736 1042 l 2
 965 1042 1074 893 1074 740 c 0
 1074 583 956 421 736 421 c 2
 338 421 l 1xbe
 338 62 l 1
 508 62 l 1
 508 0 l 1
 104 0 l 1
 104 62 l 1
 257 62 l 1
 257 1171 l 1
 106 1171 l 1
 106 1234 l 1
 493 1234 l 1
 493 1171 l 1
 338 1171 l 1xde
338 979 m 1
 338 486 l 1
 736 486 l 2
 904 486 995 614 995 740 c 0
 995 862 912 979 736 979 c 2
 338 979 l 1
EndSplineSet
EndChar

StartChar: germandbls
Encoding: 223 223 177
Width: 1081
Flags: MW
HStem: 0 78 641 44<570 716.5> 1180 75<464 655.5>
VStem: 300 9 655 296 707 366 919 32 1063 10
LayerCount: 2
Fore
SplineSet
295 62 m 1
 411 62 l 1
 411 0 l 1
 61 0 l 1
 61 62 l 1
 214 62 l 1
 214 851 l 2
 214 1106 316 1255 563 1255 c 0
 789 1255 913 1104 913 958 c 0
 913 838 856 708 694 676 c 1
 911 668 1048 517 1048 337 c 0
 1048 143 901 0 562 0 c 1
 562 62 l 1
 774 62 969 122 969 337 c 0
 969 493 863 641 570 641 c 1
 570 685 l 1
 749 694 834 829 834 955 c 0
 834 1072 744 1180 567 1180 c 0
 361 1180 295 1088 295 856 c 2
 295 62 l 1
EndSplineSet
EndChar

StartChar: atilde
Encoding: 227 227 181
Width: 981
Flags: MW
HStem: -14 21G<267.5 424> 0 53 0 60<752 905 752 905> 410 65<388 479.5 352 500> 787 67<371.5 507.5> 1022 88
VStem: 79 81 673 80
LayerCount: 2
Fore
SplineSet
298 982 m 1x9f
 260 982 l 1
 270 1072 321 1111 384 1111 c 0
 470 1111 547 1064 613 1064 c 0
 650 1064 678 1080 687 1107 c 1
 724 1107 l 1
 715 1026 672 976 600 976 c 0
 501 976 427 1023 357 1023 c 0
 321 1023 306 1009 298 982 c 1x9f
364 -14 m 0
 171 -14 78 101 78 232 c 0
 78 452 263 475 441 475 c 0
 518 475 591 462 672 446 c 1
 672 575 l 2
 672 736 581 787 434 787 c 0
 309 787 214 757 154 696 c 1
 118 755 l 1
 192 826 302 854 436 854 c 0
 696 854 752 701 752 593 c 2
 752 60 l 1
 905 60 l 1x3f
 905 0 l 1
 688 0 l 1x5f
 672 95 l 1
 574 22 484 -14 364 -14 c 0
672 158 m 1
 672 384 l 1
 672 384 551 410 449 410 c 0
 327 410 159 413 159 230 c 0
 159 148 212 53 374 53 c 0x5f
 488 53 587 80 672 158 c 1
EndSplineSet
EndChar

StartChar: adieresis
Encoding: 228 228 182
Width: 981
Flags: MW
HStem: -14 21G<267.5 424> 0 53 0 60<752 905 752 905> 410 65<388 479.5 352 500> 787 67<371.5 507.5> 1188 260
VStem: 79 81 218 270 673 80
LayerCount: 2
Fore
SplineSet
563 1082 m 1x9f80
 663 1082 l 1
 663 976 l 1
 563 976 l 1
 563 1082 l 1x9f80
321 1082 m 1
 421 1082 l 1
 421 976 l 1
 321 976 l 1
 321 1082 l 1
364 -14 m 0
 171 -14 78 101 78 232 c 0
 78 452 263 475 441 475 c 0
 518 475 591 462 672 446 c 1
 672 575 l 2
 672 736 581 787 434 787 c 0
 309 787 214 757 154 696 c 1
 118 755 l 1
 192 826 302 854 436 854 c 0
 696 854 752 701 752 593 c 2
 752 60 l 1
 905 60 l 1x3f80
 905 0 l 1
 688 0 l 1x5f80
 672 95 l 1
 574 22 484 -14 364 -14 c 0
672 158 m 1
 672 384 l 1
 672 384 551 410 449 410 c 0
 327 410 159 413 159 230 c 0
 159 148 212 53 374 53 c 0x5f80
 488 53 587 80 672 158 c 1
EndSplineSet
EndChar

StartChar: ae
Encoding: 230 230 184
Width: 1499
Flags: MW
HStem: -14 414<269.5 1447 1012.5 1139> 0 53 0 60 400 66<758 1369 758 1447 756 1369> 410 65<390 481.5 354 502> 787 67<373.5 509.5 1013 1179.5>
VStem: 80 81<189 321.5 189 342> 674 94 754 0
LayerCount: 2
Fore
SplineSet
366 -14 m 0x8e80
 173 -14 80 101 80 232 c 0
 80 452 265 475 443 475 c 0
 520 475 599 462 680 446 c 1
 674 575 l 1x2f
 674 736 583 787 436 787 c 0
 311 787 216 757 156 696 c 1
 120 755 l 1
 194 826 304 854 438 854 c 0
 643 854 721 746 744 641 c 1
 811 766 929 854 1097 854 c 0
 1316 854 1447 648 1447 400 c 1
 756 400 l 1
 756 164 851 52 1081 52 c 0
 1203 52 1325 105 1415 204 c 1
 1448 149 l 1
 1331 35 1200 -14 1078 -14 c 0
 947 -14 840 25 761 116 c 1
 634 0 485 -14 366 -14 c 0x8e80
758 466 m 1x3680
 1369 466 l 1
 1356 632 1262 787 1097 787 c 0
 880 787 767 623 758 466 c 1x3680
731 164 m 1
 701 224 680 326 680 384 c 1
 680 384 553 410 451 410 c 0
 329 410 161 413 161 230 c 0
 161 148 214 53 376 53 c 0x4e80
 502 53 592 56 731 164 c 1
EndSplineSet
EndChar

StartChar: ecircumflex
Encoding: 234 234 188
Width: 934
Flags: MW
HStem: -14 414<367 548> 400 66<139 812 141 812 141 890> 787 67<388 597.5> 922 273
VStem: 58 94
LayerCount: 2
Fore
SplineSet
366 976 m 1xb8
 284 976 l 1
 423 1249 l 1
 518 1249 l 1
 664 976 l 1
 575 976 l 1
 471 1200 l 1
 366 976 l 1xb8
139 400 m 1
 155 169 313 52 488 52 c 0
 614 52 741 106 834 204 c 1
 867 149 l 1
 746 35 611 -14 485 -14 c 0
 249 -14 57 169 57 420 c 0
 57 637 206 854 504 854 c 0
 745 854 890 648 890 400 c 1
 139 400 l 1
141 466 m 1x78
 812 466 l 1
 797 632 691 787 504 787 c 0
 272 787 150 623 141 466 c 1x78
EndSplineSet
EndChar

StartChar: edieresis
Encoding: 235 235 189
Width: 934
Flags: MW
HStem: -14 414<367 548> 400 66<139 812 141 812 141 890> 787 67<388 597.5> 1188 260
VStem: 58 94 265 270 749 269
LayerCount: 2
Fore
SplineSet
545 1082 m 1xbe
 645 1082 l 1
 645 976 l 1
 545 976 l 1
 545 1082 l 1xbe
303 1082 m 1
 403 1082 l 1
 403 976 l 1
 303 976 l 1
 303 1082 l 1
139 400 m 1
 155 169 313 52 488 52 c 0
 614 52 741 106 834 204 c 1
 867 149 l 1
 746 35 611 -14 485 -14 c 0
 249 -14 57 169 57 420 c 0
 57 637 206 854 504 854 c 0
 745 854 890 648 890 400 c 1
 139 400 l 1
141 466 m 1x7e
 812 466 l 1
 797 632 691 787 504 787 c 0
 272 787 150 623 141 466 c 1x7e
EndSplineSet
EndChar

StartChar: idieresis
Encoding: 239 239 193
Width: 569
Flags: MW
HStem: 0 0<106 106 489 489> 60 776<106 256 256 256 106 489 106 489> 779 81 1092 113
VStem: -12 270 260 66 472 269
LayerCount: 2
Fore
SplineSet
369 1082 m 1xbe
 469 1082 l 1
 469 976 l 1
 369 976 l 1
 369 1082 l 1xbe
127 1082 m 1
 227 1082 l 1
 227 976 l 1
 127 976 l 1
 127 1082 l 1
256 776 m 1
 106 776 l 1
 106 836 l 1
 335 836 l 1
 335 60 l 1
 489 60 l 1
 489 0 l 1
 106 0 l 1
 106 60 l 1
 256 60 l 1xde
 256 776 l 1
EndSplineSet
EndChar

StartChar: eth
Encoding: 240 240 194
Width: 920
Flags: MW
HStem: -23 72<345.5 549> 662 100 1088 392 1175 55<794 818> 1289 19
VStem: 135 570<278 697> 389 78 543 77
LayerCount: 2
Fore
SplineSet
794 1230 m 1xdb
 818 1175 l 1
 94 988 l 1
 75 1040 l 1
 794 1230 l 1xdb
135 354 m 0xe4
 135 202 239 49 452 49 c 0
 662 49 762 194 762 344 c 0
 762 553 604 658 447 658 c 0
 291 658 135 556 135 354 c 0xe4
280 1314 m 1
 347 1361 l 1
 705 697 l 1
 705 697 839 484 839 341 c 0
 839 128 646 -23 452 -23 c 0
 191 -23 53 168 53 371 c 0
 53 570 230 726 436 726 c 0
 500 726 567 710 632 678 c 1
 280 1314 l 1
EndSplineSet
EndChar

StartChar: ntilde
Encoding: 241 241 195
Width: 1202
Flags: MW
HStem: 0 60<100 281 361 543 100 281 722 879 958 1133> 787 67<640 774> 1022 88
VStem: 101 261 282 76 880 79
LayerCount: 2
Fore
SplineSet
423 982 m 1xec
 385 982 l 1
 395 1072 446 1111 509 1111 c 0
 595 1111 672 1064 738 1064 c 0
 775 1064 803 1080 812 1107 c 1
 849 1107 l 1
 840 1026 797 976 725 976 c 0
 626 976 552 1023 482 1023 c 0
 446 1023 431 1009 423 982 c 1xec
281 779 m 1
 101 779 l 1
 101 836 l 1xf4
 349 836 l 1
 357 736 l 1
 482 820 575 854 705 854 c 0
 897 854 958 726 958 617 c 2
 958 60 l 1
 1133 60 l 1
 1133 0 l 1
 722 0 l 1
 722 60 l 1
 879 60 l 1
 879 601 l 2
 879 704 850 787 698 787 c 0
 563 787 469 743 361 668 c 1
 361 60 l 1
 543 60 l 1
 543 0 l 1
 100 0 l 1
 100 60 l 1
 281 60 l 1
 281 779 l 1
EndSplineSet
EndChar

StartChar: otilde
Encoding: 245 245 199
Width: 1004
Flags: MW
HStem: -22 77 791 81 1022 88 1069 41 1069 88
VStem: 57 82<301 542.5 301 565> 879 80<301 542.5>
LayerCount: 2
Fore
SplineSet
314 982 m 1
 276 982 l 1
 286 1072 337 1111 400 1111 c 0
 486 1111 563 1064 629 1064 c 0
 666 1064 694 1080 703 1107 c 1
 740 1107 l 1
 731 1026 688 976 616 976 c 0
 517 976 443 1023 373 1023 c 0
 337 1023 322 1009 314 982 c 1
879 424 m 0
 879 661 692 787 506 787 c 0
 321 787 139 661 139 424 c 0
 139 178 321 53 506 53 c 0
 692 53 879 178 879 424 c 0
959 424 m 0
 959 134 732 -14 506 -14 c 0
 281 -14 57 136 57 424 c 0
 57 706 279 854 506 854 c 0
 731 854 959 709 959 424 c 0
EndSplineSet
EndChar

StartChar: odieresis
Encoding: 246 246 200
Width: 1004
Flags: MW
HStem: -22 77 791 81 1188 260
VStem: 57 82<301 542.5 301 565> 264 270 748 269 879 80<301 542.5>
LayerCount: 2
Fore
SplineSet
579 1082 m 1xfc
 679 1082 l 1
 679 976 l 1
 579 976 l 1
 579 1082 l 1xfc
337 1082 m 1
 437 1082 l 1
 437 976 l 1
 337 976 l 1
 337 1082 l 1
879 424 m 0xfa
 879 661 692 787 506 787 c 0
 321 787 139 661 139 424 c 0
 139 178 321 53 506 53 c 0
 692 53 879 178 879 424 c 0xfa
959 424 m 0
 959 134 732 -14 506 -14 c 0
 281 -14 57 136 57 424 c 0
 57 706 279 854 506 854 c 0
 731 854 959 709 959 424 c 0
EndSplineSet
EndChar

StartChar: divide
Encoding: 247 247 201
Width: 522
Flags: MW
HStem: 124 21G 156 120<208 324 208 324> 522 142 1036 20G
VStem: 192 191 208 116<156 276 156 276 605 725>
LayerCount: 2
Fore
SplineSet
529 413 m 1xf8
 529 475 l 1
 0 475 l 1
 0 413 l 1
 529 413 l 1xf8
208 276 m 1xf4
 324 276 l 1
 324 156 l 1
 208 156 l 1
 208 276 l 1xf4
208 725 m 1
 324 725 l 1
 324 605 l 1
 208 605 l 1
 208 725 l 1
EndSplineSet
EndChar

StartChar: oslash
Encoding: 248 248 202
Width: 997
Flags: MW
HStem: -120 20G 0 25 482 354
VStem: 51 82<301 542.5 301 565> 282 69 851 28 873 80<301 542.5>
LayerCount: 2
Fore
SplineSet
234 -196 m 1xfc
 194 -172 l 1
 813 1039 l 1
 854 1015 l 1
 234 -196 l 1xfc
873 424 m 0xfa
 873 661 686 787 500 787 c 0
 315 787 133 661 133 424 c 0
 133 178 315 53 500 53 c 0
 686 53 873 178 873 424 c 0xfa
953 424 m 0
 953 134 726 -14 500 -14 c 0
 275 -14 51 136 51 424 c 0
 51 706 273 854 500 854 c 0
 725 854 953 709 953 424 c 0
EndSplineSet
EndChar

StartChar: ugrave
Encoding: 249 249 203
Width: 1102
Flags: MW
HStem: -22 77 -14 21G<351 514.5> 779 81 985 249
VStem: 72 202 591 252
LayerCount: 2
Fore
SplineSet
541 976 m 1xbc
 510 976 l 1
 353 1225 l 1
 480 1225 l 1
 541 976 l 1xbc
863 58 m 1
 1036 58 l 1
 1036 0 l 1
 796 0 l 1
 788 104 l 1
 655 25 577 -14 452 -14 c 0x7c
 250 -14 189 114 189 223 c 2
 189 776 l 1
 14 776 l 1
 14 836 l 1
 268 836 l 1
 268 239 l 2
 268 136 297 53 459 53 c 0
 589 53 682 110 784 173 c 1
 784 776 l 1
 610 776 l 1
 610 836 l 1
 863 836 l 1
 863 58 l 1
EndSplineSet
EndChar

StartChar: uacute
Encoding: 250 250 204
Width: 1102
Flags: MW
HStem: -22 77 -14 21G<351 514.5> 779 81 985 249
VStem: 72 202 591 252
LayerCount: 2
Fore
SplineSet
541 976 m 1xbc
 510 976 l 1
 569 1225 l 1
 695 1225 l 1
 541 976 l 1xbc
863 58 m 1
 1036 58 l 1
 1036 0 l 1
 796 0 l 1
 788 104 l 1
 655 25 577 -14 452 -14 c 0x7c
 250 -14 189 114 189 223 c 2
 189 776 l 1
 14 776 l 1
 14 836 l 1
 268 836 l 1
 268 239 l 2
 268 136 297 53 459 53 c 0
 589 53 682 110 784 173 c 1
 784 776 l 1
 610 776 l 1
 610 836 l 1
 863 836 l 1
 863 58 l 1
EndSplineSet
EndChar

StartChar: ucircumflex
Encoding: 251 251 205
Width: 1102
Flags: MW
HStem: -22 77 -14 21G<351 514.5> 779 81 922 273
VStem: 71 202 590 252
LayerCount: 2
Fore
SplineSet
417 976 m 1xbc
 335 976 l 1
 474 1249 l 1
 569 1249 l 1
 715 976 l 1
 626 976 l 1
 522 1200 l 1
 417 976 l 1xbc
863 58 m 1
 1036 58 l 1
 1036 0 l 1
 796 0 l 1
 788 104 l 1
 655 25 577 -14 452 -14 c 0x7c
 250 -14 189 114 189 223 c 2
 189 776 l 1
 14 776 l 1
 14 836 l 1
 268 836 l 1
 268 239 l 2
 268 136 297 53 459 53 c 0
 589 53 682 110 784 173 c 1
 784 776 l 1
 610 776 l 1
 610 836 l 1
 863 836 l 1
 863 58 l 1
EndSplineSet
EndChar

StartChar: udieresis
Encoding: 252 252 206
Width: 1102
Flags: MW
HStem: -22 77 -14 21G<351 514.5> 779 81 1188 260
VStem: 71 202 590 252
LayerCount: 2
Fore
SplineSet
596 1082 m 1xbc
 696 1082 l 1
 696 976 l 1
 596 976 l 1
 596 1082 l 1xbc
354 1082 m 1
 454 1082 l 1
 454 976 l 1
 354 976 l 1
 354 1082 l 1
863 58 m 1
 1036 58 l 1
 1036 0 l 1
 796 0 l 1
 788 104 l 1
 655 25 577 -14 452 -14 c 0x7c
 250 -14 189 114 189 223 c 2
 189 776 l 1
 14 776 l 1
 14 836 l 1
 268 836 l 1
 268 239 l 2
 268 136 297 53 459 53 c 0
 589 53 682 110 784 173 c 1
 784 776 l 1
 610 776 l 1
 610 836 l 1
 863 836 l 1
 863 58 l 1
EndSplineSet
EndChar

StartChar: yacute
Encoding: 253 253 207
Width: 1026
Flags: MW
HStem: -282 131 779 81 985 249
LayerCount: 2
Fore
SplineSet
521 976 m 1
 490 976 l 1
 549 1225 l 1
 675 1225 l 1
 521 976 l 1
139 -274 m 1
 139 -206 l 1
 157 -206 175 -206 192 -206 c 0
 308 -206 395 -200 437 -104 c 2
 507 58 l 1
 451 58 l 1
 131 776 l 1
 -33 776 l 1
 -33 836 l 1
 366 836 l 1
 366 776 l 1
 218 776 l 1
 517 89 l 1
 793 776 l 1
 650 776 l 1
 650 836 l 1
 1043 836 l 1
 1043 776 l 1
 884 776 l 1
 510 -127 l 2
 448 -277 319 -274 139 -274 c 1
EndSplineSet
EndChar

StartChar: thorn
Encoding: 254 254 208
Width: 1083
Flags: MW
HStem: -360 21G<8 249 8 8> -300 101 -22 77 -14 67<556 737 556 773.5> 787 67<551.5 725> 794 78 1152 82 1174 60<24 173 24 252>
VStem: 8 244 144 239 173 79<125 125 125 193 193 619 695 1174 1174 1174> 318 69 971 79<337 525> 1130 90
LayerCount: 2
Fore
SplineSet
24 1234 m 1xe54c
 252 1234 l 1
 252 695 l 1xe59c
 327 784 461 854 611 854 c 0xea4c
 897 854 1050 644 1050 434 c 0
 1050 240 933 -14 614 -14 c 0xd64c
 449 -14 299 73 252 125 c 1
 249 -360 l 1
 8 -360 l 1
 8 -300 l 1xe69c
 173 -300 l 1
 173 1174 l 1xe53c
 24 1174 l 1
 24 1234 l 1xe54c
971 426 m 0
 971 624 835 787 615 787 c 0xea4c
 488 787 386 756 252 619 c 1
 252 193 l 1xe69c
 397 82 495 53 617 53 c 0xd64c
 857 53 971 245 971 426 c 0
EndSplineSet
EndChar

StartChar: hbar
Encoding: 295 295 210
Width: 1204
Flags: MW
HStem: 0 78 791 81 985 102 1152 82
VStem: 26 252 266 67 754 410
LayerCount: 2
Fore
SplineSet
577 1012 m 1xfa
 577 949 l 1
 92 949 l 1
 92 1012 l 1
 577 1012 l 1xfa
266 1176 m 1xf6
 93 1176 l 1
 93 1234 l 1
 345 1234 l 1
 345 736 l 1
 488 815 567 854 702 854 c 0
 903 854 967 726 967 617 c 2
 967 60 l 1
 1142 60 l 1
 1142 0 l 1
 730 0 l 1
 730 60 l 1
 888 60 l 1
 888 601 l 2
 888 704 856 787 694 787 c 0
 555 787 454 726 345 664 c 1
 345 60 l 1
 537 60 l 1
 537 0 l 1
 104 0 l 1
 104 60 l 1
 266 60 l 1
 266 1176 l 1xf6
EndSplineSet
EndChar

StartChar: dotlessi
Encoding: 305 305 213
Width: 569
Flags: MW
HStem: 0 0<106 106 489 489> 60 776<106 256 256 256 106 489 106 489> 779 81 1092 113
VStem: 106 150<0 776 60 776 60 836 60 836> 106 229<0 836 60 836 776 836 60 836> 259 66
LayerCount: 2
Fore
SplineSet
256 776 m 1xba
 106 776 l 1
 106 836 l 1
 335 836 l 1
 335 60 l 1xd4
 489 60 l 1
 489 0 l 1
 106 0 l 1
 106 60 l 1
 256 60 l 1xda
 256 776 l 1xba
EndSplineSet
EndChar

StartChar: kgreenlandic
Encoding: 312 312 219
Width: 1141
Flags: MW
HStem: 0 78 779 81 1152 82
VStem: 22 255 22 368 110 256 110 369 211 66 300 66 536 448 544 440 625 448 632 441
LayerCount: 2
Fore
SplineSet
288 778 m 1
 102 778 l 1
 102 838 l 1
 367 838 l 1
 367 445 l 1
 761 776 l 1
 637 776 l 1
 637 836 l 1
 1022 836 l 1
 1022 776 l 1
 863 776 l 1
 460 439 l 1
 906 60 l 1
 1057 60 l 1
 1057 0 l 1
 674 0 l 1
 674 60 l 1
 797 60 l 1
 367 422 l 1
 367 60 l 1
 551 60 l 1
 551 0 l 1
 102 0 l 1
 102 60 l 1
 288 60 l 1
 288 778 l 1
EndSplineSet
EndChar

StartChar: Ldotaccent
Encoding: 319 319 220
Width: 1149
Flags: MW
HStem: 0 25 0 70 407 253
VStem: 276 550 538 273
LayerCount: 2
Fore
SplineSet
515 687 m 1
 632 687 l 1
 632 567 l 1
 515 567 l 1
 515 687 l 1
111 1233 m 1
 471 1233 l 1
 471 1173 l 1
 332 1173 l 1
 332 69 l 1
 960 69 l 1
 960 411 l 1
 1036 411 l 1
 1036 -1 l 1
 111 -1 l 1
 111 69 l 1
 250 69 l 1
 250 1173 l 1
 111 1173 l 1
 111 1233 l 1
EndSplineSet
EndChar

StartChar: ldot
Encoding: 320 320 221
Width: 799
Flags: MW
HStem: 0 78 1152 82
VStem: 170 66
LayerCount: 2
Fore
SplineSet
735 815 m 1
 852 815 l 1
 852 695 l 1
 735 695 l 1
 735 815 l 1
278 1174 m 1
 92 1174 l 1
 92 1234 l 1
 357 1234 l 1
 357 60 l 1
 541 60 l 1
 541 0 l 1
 92 0 l 1
 92 60 l 1
 278 60 l 1
 278 1174 l 1
EndSplineSet
EndChar

StartChar: Lslash
Encoding: 321 321 222
Width: 1169
Flags: MW
HStem: 0 25 0 70<133 272 354 982 133 272>
VStem: 298 550
LayerCount: 2
Fore
SplineSet
140 637 m 1
 562 887 l 1
 562 807 l 1
 140 557 l 1
 140 637 l 1
133 1234 m 1
 493 1234 l 1
 493 1174 l 1
 354 1174 l 1
 354 70 l 1
 982 70 l 1
 982 412 l 1
 1058 412 l 1
 1058 0 l 1
 133 0 l 1
 133 70 l 1
 272 70 l 1
 272 1174 l 1
 133 1174 l 1
 133 1234 l 1
EndSplineSet
EndChar

StartChar: lslash
Encoding: 322 322 223
Width: 680
Flags: MW
HStem: 0 78 1152 82
VStem: 98 252 98 406 284 66
LayerCount: 2
Fore
SplineSet
313 1174 m 1
 127 1174 l 1
 127 1234 l 1
 392 1234 l 1
 392 60 l 1
 576 60 l 1
 576 0 l 1
 127 0 l 1
 127 60 l 1
 313 60 l 1
 313 1174 l 1
141 637 m 1
 563 887 l 1
 563 807 l 1
 127 557 l 1
 141 637 l 1
EndSplineSet
EndChar

StartChar: OE
Encoding: 338 338 226
Width: 1937
Flags: MW
HStem: -23 101 0 78 0 614 580 106 912 322
VStem: 54 68 988 53 1174 68 1549 117 1735 68
LayerCount: 2
Fore
SplineSet
1707 1164 m 1x9fc0
 1068 1164 l 1
 1068 666 l 1
 1501 666 l 1
 1501 824 l 1
 1568 824 l 1
 1568 424 l 1
 1501 424 l 1
 1501 596 l 1
 1068 596 l 1
 1068 70 l 1
 1729 70 l 1
 1729 376 l 1
 1806 376 l 1
 1806 0 l 1
 716 0 l 2x5fc0
 289 0 76 306 76 613 c 0
 76 922 291 1234 716 1234 c 2
 1784 1234 l 1
 1784 858 l 1
 1707 858 l 1
 1707 1164 l 1x9fc0
986 70 m 1
 986 1158 l 1
 716 1158 l 2
 346 1158 160 884 160 614 c 0x2fc0
 160 337 342 70 716 70 c 2
 986 70 l 1
EndSplineSet
EndChar

StartChar: oe
Encoding: 339 339 227
Width: 1720
Flags: MW
HStem: -22 77 -14 414<388 939 1199 1346> 400 66<939 1600 941 1600 941 1678> 787 67<408.5 580 387.5 588 1190.5 1385.5> 791 81
VStem: 59 82<301 542.5 301 565> 857 82<400 400 400 542.5> 1091 94
LayerCount: 2
Fore
SplineSet
939 400 m 1x4f
 955 169 1113 52 1288 52 c 0
 1409 52 1533 106 1622 204 c 1
 1655 149 l 1
 1538 35 1407 -14 1285 -14 c 0
 1113 -14 965 83 897 232 c 1
 827 68 659 -14 501 -14 c 0x4f
 275 -14 59 136 59 424 c 0
 59 706 274 854 501 854 c 0
 659 854 829 772 898 610 c 1
 958 748 1089 854 1292 854 c 0xb7
 1533 854 1678 648 1678 400 c 1
 939 400 l 1x4f
857 424 m 0
 857 661 675 787 501 787 c 0xb7
 316 787 141 661 141 424 c 0
 141 178 316 53 501 53 c 0
 675 53 857 178 857 424 c 0
941 466 m 1
 1600 466 l 1
 1586 632 1479 787 1292 787 c 0
 1067 787 950 623 941 466 c 1
EndSplineSet
EndChar

StartChar: Rcommaaccent
Encoding: 342 342 229
Width: 1274
Flags: MW
HStem: -2964 21G -2642 289 -1604 21G -1428 21G -1328 20G 0 78 598 81 1152 82
VStem: 294 51 405 126 467 64 566 82 944 70
LayerCount: 2
Fore
SplineSet
564 -308 m 1
 564 -122 l 1
 738 -122 l 1
 738 -273 733 -199 728 -267 c 0
 717 -402 721 -501 573 -507 c 1
 573 -435 l 1
 616 -424 639 -390 639 -308 c 1
 564 -308 l 1
99 0 m 1
 99 62 l 1
 252 62 l 1
 252 1171 l 1
 86 1171 l 1
 86 1234 l 1
 726 1234 l 2
 966 1234 1088 1070 1088 907 c 0
 1088 744 966 577 726 577 c 2
 725 577 l 1
 1041 62 l 1
 1215 62 l 1
 1215 0 l 1
 983 0 l 1
 641 577 l 1
 333 577 l 1
 333 62 l 1
 503 62 l 1
 503 0 l 1
 99 0 l 1
333 1171 m 1
 333 642 l 1
 726 642 l 2
 913 642 1009 773 1009 904 c 0
 1009 1039 915 1171 726 1171 c 2
 333 1171 l 1
EndSplineSet
EndChar

StartChar: rcommaaccent
Encoding: 343 343 230
Width: 748
Flags: MW
HStem: -2711 21G -2389 289 -1351 21G -1175 21G -1075 20G 0 60<100 284 363 546 100 284> 774 74 779 69
VStem: 101 250<779 836 836 836> 284 67<60 836 779 836> 284 79<60 60> 300 126 362 64 461 82
LayerCount: 2
Fore
SplineSet
341 -308 m 1xfe14
 341 -122 l 1
 515 -122 l 1
 515 -273 510 -199 505 -267 c 0
 494 -402 498 -501 350 -507 c 1
 350 -435 l 1
 393 -424 416 -390 416 -308 c 1
 341 -308 l 1xfe14
363 60 m 1xfe24
 546 60 l 1
 546 0 l 1
 100 0 l 1
 100 60 l 1
 284 60 l 1
 284 779 l 1xfd4c
 101 779 l 1xfd8c
 101 836 l 1
 351 836 l 1xfe8c
 363 652 l 1
 396 774 478 854 591 854 c 0
 640 854 696 841 756 814 c 1
 744 746 l 1
 689 773 636 787 590 787 c 0
 456 787 363 670 341 468 c 1
 363 60 l 1xfe24
EndSplineSet
EndChar

StartChar: Ydieresis
Encoding: 376 376 235
Width: 1141
Flags: MW
HStem: 0 78 1152 82 1561 260
VStem: 198 270 429 52 682 269
LayerCount: 2
Fore
SplineSet
622 1483 m 1
 722 1483 l 1
 722 1377 l 1
 622 1377 l 1
 622 1483 l 1
380 1483 m 1
 480 1483 l 1
 480 1377 l 1
 380 1377 l 1
 380 1483 l 1
70 1171 m 1
 -88 1171 l 1
 -88 1234 l 1
 315 1234 l 1
 315 1171 l 1
 158 1171 l 1
 555 508 l 1
 945 1171 l 1
 786 1171 l 1
 786 1234 l 1
 1189 1234 l 1
 1189 1171 l 1
 1033 1171 l 1
 594 436 l 1
 594 62 l 1
 754 62 l 1
 754 0 l 1
 351 0 l 1
 351 62 l 1
 512 62 l 1
 480 436 l 1
 70 1171 l 1
EndSplineSet
EndChar

StartChar: florin
Encoding: 402 402 238
Width: 729
Flags: MW
HStem: 0 60 779 57<200 339 184 354 434 621> 1044 211 1158 97
VStem: -30 424 422 79<1078 1080> 766 26
LayerCount: 2
Fore
SplineSet
724 1219 m 1
 710 1165 l 1
 680 1176 646 1183 614 1183 c 0
 564 1183 518 1157 501 1080 c 1
 434 836 l 1
 636 836 l 1
 621 779 l 1
 418 779 l 1
 220 60 l 2
 180 -86 74 -86 -18 -86 c 1
 -2 -24 l 1
 52 -24 118 -24 141 60 c 2
 339 779 l 1
 184 779 l 1
 200 836 l 1
 354 836 l 1
 422 1078 l 1
 448 1183 516 1244 610 1244 c 0
 644 1244 686 1236 724 1219 c 1
EndSplineSet
EndChar

StartChar: uni0202
Encoding: 514 514 241
Width: 1321
Flags: MW
HStem: 0 62<4 163 249 408 4 163 885 1044 1130 1288> 504 61 1171 63<421 579 421 872 715 872 715 715> 1453 192 1591 54
VStem: 211 81
LayerCount: 2
Fore
SplineSet
438 1377 m 1
 351 1377 l 1
 364 1492 483 1569 651 1569 c 0
 814 1569 929 1491 941 1377 c 1
 862 1377 l 1
 846 1468 766 1515 651 1515 c 0
 531 1515 454 1468 438 1377 c 1
421 1234 m 1
 872 1234 l 1
 872 1171 l 1
 715 1171 l 1
 1130 62 l 1
 1288 62 l 1
 1288 0 l 1
 885 0 l 1
 885 62 l 1
 1044 62 l 1
 884 503 l 1
 409 503 l 1
 249 62 l 1
 408 62 l 1
 408 0 l 1
 4 0 l 1
 4 62 l 1
 163 62 l 1
 579 1171 l 1
 421 1171 l 1
 421 1234 l 1
646 1153 m 1
 430 564 l 1
 872 564 l 1
 646 1153 l 1
EndSplineSet
EndChar

StartChar: uni0206
Encoding: 518 518 245
Width: 1249
Flags: MW
HStem: 0 78 580 106 912 322 1453 192 1591 54
VStem: 276 53 836 118 1022 69
LayerCount: 2
Fore
SplineSet
1019 1164 m 1
 355 1164 l 1
 355 666 l 1
 788 666 l 1
 788 824 l 1
 855 824 l 1
 855 424 l 1
 788 424 l 1
 788 596 l 1
 355 596 l 1
 355 70 l 1
 1040 70 l 1
 1040 376 l 1
 1117 376 l 1
 1117 0 l 1
 98 0 l 1
 98 70 l 1
 273 70 l 1
 273 1164 l 1
 98 1164 l 1
 98 1234 l 1
 1095 1234 l 1
 1095 858 l 1
 1019 858 l 1
 1019 1164 l 1
399 1377 m 1
 312 1377 l 1
 325 1492 444 1569 612 1569 c 0
 775 1569 890 1491 902 1377 c 1
 823 1377 l 1
 807 1468 727 1515 612 1515 c 0
 492 1515 415 1468 399 1377 c 1
EndSplineSet
EndChar

StartChar: uni0207
Encoding: 519 519 246
Width: 934
Flags: MW
HStem: 400 66<139 812 141 812 141 890> 787 67<388 597.5> 1080 192 1218 54
VStem: 58 94
LayerCount: 2
Fore
SplineSet
266 976 m 1
 179 976 l 1
 192 1091 311 1168 479 1168 c 0
 642 1168 757 1090 769 976 c 1
 690 976 l 1
 674 1067 594 1114 479 1114 c 0
 359 1114 282 1067 266 976 c 1
139 400 m 1
 155 169 313 52 488 52 c 0
 614 52 741 106 834 204 c 1
 867 149 l 1
 746 35 611 -14 485 -14 c 0
 249 -14 57 169 57 420 c 0
 57 637 206 854 504 854 c 0
 745 854 890 648 890 400 c 1
 139 400 l 1
141 466 m 1
 812 466 l 1
 797 632 691 787 504 787 c 0
 272 787 150 623 141 466 c 1
EndSplineSet
EndChar

StartChar: uni020A
Encoding: 522 522 249
Width: 612
Flags: MW
HStem: 0 62<163 324 406 566 163 324> 1171 63<163 324 163 566 406 566 406 406> 1453 192 1591 54
VStem: 325 82
LayerCount: 2
Fore
SplineSet
157 1377 m 1
 70 1377 l 1
 83 1492 202 1569 370 1569 c 0
 533 1569 648 1491 660 1377 c 1
 581 1377 l 1
 565 1468 485 1515 370 1515 c 0
 250 1515 173 1468 157 1377 c 1
163 1234 m 1
 566 1234 l 1
 566 1171 l 1
 406 1171 l 1
 406 62 l 1
 566 62 l 1
 566 0 l 1
 163 0 l 1
 163 62 l 1
 324 62 l 1
 324 1171 l 1
 163 1171 l 1
 163 1234 l 1
EndSplineSet
EndChar

StartChar: uni020B
Encoding: 523 523 250
Width: 569
Flags: MW
HStem: 0 78 779 81 1098 107 1218 54
VStem: 294 111 320 66
LayerCount: 2
Fore
SplineSet
150 976 m 1
 63 976 l 1
 76 1091 195 1168 363 1168 c 0
 526 1168 641 1090 653 976 c 1
 574 976 l 1
 558 1067 478 1114 363 1114 c 0
 243 1114 166 1067 150 976 c 1
316 776 m 1
 166 776 l 1
 166 836 l 1
 395 836 l 1
 395 60 l 1
 549 60 l 1
 549 0 l 1
 166 0 l 1
 166 60 l 1
 316 60 l 1
 316 776 l 1
EndSplineSet
EndChar

StartChar: dotlessj
Encoding: 567 567 267
Width: 397
Flags: MW
HStem: -271 72<-80 16 -80 74> 779 81<25 172 25 241>
VStem: -80 321<-271 -44 -199 -44> 16 225<-271 -44> 172 69<0 779 779 779>
LayerCount: 2
Fore
SplineSet
172 779 m 1xc8
 25 779 l 1
 25 860 l 1
 241 860 l 1
 241 -44 l 2
 241 -128 242 -271 16 -271 c 2xd0
 -80 -271 l 1
 -80 -199 l 1xe0
 74 -199 l 2
 141 -199 172 -137 172 0 c 2
 172 779 l 1xc8
EndSplineSet
EndChar

StartChar: circumflex
Encoding: 710 710 268
Width: 598
Flags: MW
HStem: 922 273<106 340 106 340 245 397 245 486>
LayerCount: 2
Fore
SplineSet
188 922 m 1
 106 922 l 1
 245 1195 l 1
 340 1195 l 1
 486 922 l 1
 397 922 l 1
 293 1146 l 1
 188 922 l 1
EndSplineSet
EndChar

StartChar: caron
Encoding: 711 711 269
Width: 598
Flags: MW
HStem: 922 273<109 343 109 248> 1099 21G 1385 20G
LayerCount: 2
Fore
SplineSet
109 1195 m 1
 191 1195 l 1
 296 971 l 1
 400 1195 l 1
 489 1195 l 1
 343 922 l 1
 248 922 l 1
 109 1195 l 1
EndSplineSet
EndChar

StartChar: breve
Encoding: 728 728 270
Width: 586
Flags: MW
HStem: 1080 56<269 323 269 334> 1080 168<131 334>
LayerCount: 2
Fore
SplineSet
131 1248 m 1x40
 182 1248 l 1x40
 188 1174 242 1136 296 1136 c 0x80
 350 1136 403 1172 414 1248 c 1
 457 1248 l 1
 446 1136 372 1080 296 1080 c 0
 221 1080 145 1136 131 1248 c 1x40
EndSplineSet
EndChar

StartChar: dotaccent
Encoding: 729 729 271
Width: 397
Flags: MW
HStem: 1064 120<141 257 141 257> 1140 210 1188 260
VStem: 91 270 141 116<1064 1184 1064 1184> 281 219 575 269
LayerCount: 2
Fore
SplineSet
141 1184 m 1
 257 1184 l 1
 257 1064 l 1
 141 1064 l 1
 141 1184 l 1
EndSplineSet
EndChar

StartChar: ring
Encoding: 730 730 272
Width: 590
Flags: MW
HStem: 996 53 1165 0<125 125 173 173 418 418 466 466>
VStem: 128 37 419 46
LayerCount: 2
Fore
SplineSet
173 1165 m 0
 173 1103 215 1039 297 1039 c 0
 376 1039 418 1103 418 1165 c 0
 418 1228 376 1291 297 1291 c 0
 215 1291 173 1228 173 1165 c 0
125 1165 m 0
 125 1250 183 1336 296 1336 c 0
 408 1336 466 1250 466 1165 c 0
 466 1080 408 995 296 995 c 0
 183 995 125 1080 125 1165 c 0
EndSplineSet
EndChar

StartChar: ogonek
Encoding: 731 731 273
Width: 530
Flags: MW
HStem: -364 84 -20 20G<240 293 293 293>
VStem: 96 107
LayerCount: 2
Fore
SplineSet
240 0 m 1
 293 0 l 1
 232 -58 202 -121 202 -174 c 0
 202 -251 257 -278 320 -278 c 0
 356 -278 393 -269 425 -256 c 1
 425 -319 l 1
 382 -348 328 -364 278 -364 c 0
 194 -364 119 -320 119 -227 c 0
 119 -149 165 -56 240 0 c 1
EndSplineSet
EndChar

StartChar: tilde
Encoding: 732 732 274
Width: 717
Flags: MW
HStem: 1022 88<445 496.5 445 501> 1069 41 1069 88<217.5 257>
LayerCount: 2
Fore
SplineSet
163 1028 m 1x40
 125 1028 l 1
 135 1118 186 1157 249 1157 c 0x20
 335 1157 412 1110 478 1110 c 0
 515 1110 543 1126 552 1153 c 1
 589 1153 l 1
 580 1072 537 1022 465 1022 c 0x80
 366 1022 292 1069 222 1069 c 0
 186 1069 171 1055 163 1028 c 1x40
EndSplineSet
EndChar

StartChar: hungarumlaut
Encoding: 733 733 275
Width: 623
Flags: MW
HStem: 944 231 985 249<125 310 125 310 184 366 184 335>
LayerCount: 2
Fore
SplineSet
366 985 m 1
 335 985 l 1
 394 1234 l 1
 520 1234 l 1
 366 985 l 1
156 985 m 1
 125 985 l 1
 184 1234 l 1
 310 1234 l 1
 156 985 l 1
EndSplineSet
EndChar

StartChar: dotaccentcmb
Encoding: 775 775 276
Width: 397
Flags: MW
HStem: 1064 120<141 257 141 257> 1140 210 1188 260
VStem: 91 270 141 116<1064 1184 1064 1184> 281 219 575 269
LayerCount: 2
Fore
SplineSet
141 1184 m 1
 257 1184 l 1
 257 1064 l 1
 141 1064 l 1
 141 1184 l 1
EndSplineSet
EndChar

StartChar: uni030F
Encoding: 783 783 277
Width: 627
Flags: MW
HStem: 944 231 985 249<104 289 104 258 104 468 104 499>
LayerCount: 2
Fore
SplineSet
289 985 m 1
 258 985 l 1
 104 1234 l 1
 230 1234 l 1
 289 985 l 1
499 985 m 1
 468 985 l 1
 314 1234 l 1
 440 1234 l 1
 499 985 l 1
EndSplineSet
EndChar

StartChar: uni0311
Encoding: 785 785 278
Width: 854
Flags: MW
HStem: 1080 192<131 512.5 347 642 347 721> 1218 54<371 488.5>
LayerCount: 2
Fore
SplineSet
218 1080 m 1x80
 131 1080 l 1
 144 1195 263 1272 431 1272 c 0
 594 1272 709 1194 721 1080 c 1
 642 1080 l 1x80
 626 1171 546 1218 431 1218 c 0x40
 311 1218 234 1171 218 1080 c 1x80
EndSplineSet
EndChar

StartChar: uni0326
Encoding: 806 806 279
Width: 457
Flags: MW
HStem: -419 21G -97 289 108 21G<145 319 319 319> 423 20G
VStem: 67 300
LayerCount: 2
Fore
SplineSet
145 -78 m 1xd8
 145 108 l 1
 319 108 l 1xb8
 319 -43 314 31 309 -37 c 0
 298 -172 302 -271 154 -277 c 1
 154 -205 l 1
 197 -194 220 -160 220 -78 c 1
 145 -78 l 1xd8
EndSplineSet
EndChar

StartChar: pi
Encoding: 960 960 280
Width: 1137
Flags: MW
HStem: -13 62<845 935> -4 57<162 223.5 162 232> 806 30<255 963 282 330 407 769 407 407 855 963 855 855>
VStem: 168 37<709 752.5> 768 87<125 168 168 179>
LayerCount: 2
Fore
SplineSet
963 836 m 1x78
 963 806 l 1
 855 806 l 1
 855 168 l 2
 855 82 877 49 927 49 c 0
 943 49 961 52 983 58 c 1
 983 13 l 1
 945 -6 914 -13 887 -13 c 0xb8
 803 -13 768 70 768 179 c 2
 769 806 l 1
 407 806 l 1
 372 308 l 2
 356 78 302 -4 162 -4 c 1
 162 53 l 1
 285 53 270 144 287 330 c 2
 330 806 l 1
 281 806 l 2
 229 806 209 764 205 709 c 1
 168 709 l 1
 168 796 183 836 282 836 c 2
 963 836 l 1x78
EndSplineSet
EndChar

StartChar: endash
Encoding: 8211 8211 281
Width: 995
Flags: MW
HStem: 0 60<143 859 143 859>
LayerCount: 2
Fore
SplineSet
143 60 m 1
 859 60 l 1
 859 0 l 1
 143 0 l 1
 143 60 l 1
EndSplineSet
EndChar

StartChar: emdash
Encoding: 8212 8212 282
Width: 1358
Flags: MW
HStem: -466 125
LayerCount: 2
Fore
SplineSet
143 60 m 1
 1220 60 l 1
 1220 0 l 1
 143 0 l 1
 143 60 l 1
EndSplineSet
EndChar

StartChar: quoteleft
Encoding: 8216 8216 283
Width: 401
Flags: MW
HStem: 714 541
VStem: -12 293
LayerCount: 2
Fore
SplineSet
261 959 m 1
 135 959 l 1
 135 1081 l 2
 135 1180 170 1255 271 1255 c 1
 271 1211 l 1
 205 1189 200 1163 200 1079 c 1
 261 1079 l 1
 261 959 l 1
EndSplineSet
EndChar

StartChar: quoteright
Encoding: 8217 8217 284
Width: 401
Flags: MW
HStem: 692 542
VStem: -26 295
LayerCount: 2
Fore
SplineSet
143 1234 m 1
 269 1234 l 1
 269 1111 l 2
 269 1013 234 937 133 937 c 1
 133 982 l 1
 199 1003 204 1030 204 1114 c 1
 143 1114 l 1
 143 1234 l 1
EndSplineSet
EndChar

StartChar: quotesinglbase
Encoding: 8218 8218 285
Width: 412
Flags: MW
HStem: -269 541 33 21G
VStem: 151 295
LayerCount: 2
Fore
SplineSet
148 116 m 1
 274 116 l 1
 274 -6 l 2
 274 -104 240 -180 139 -180 c 1
 139 -136 l 1
 205 -114 210 -88 210 -4 c 1
 148 -4 l 1
 148 116 l 1
EndSplineSet
EndChar

StartChar: quotedblleft
Encoding: 8220 8220 286
Width: 627
Flags: MW
HStem: 714 240 714 541
VStem: -12 293 451 296
LayerCount: 2
Fore
SplineSet
487 959 m 1xb0
 361 959 l 1
 361 1081 l 2
 361 1180 396 1255 497 1255 c 1x70
 497 1211 l 1
 431 1189 426 1163 426 1079 c 1
 487 1079 l 1
 487 959 l 1xb0
261 959 m 1
 135 959 l 1
 135 1081 l 2
 135 1180 170 1255 271 1255 c 1
 271 1211 l 1
 205 1189 200 1163 200 1079 c 1
 261 1079 l 1
 261 959 l 1
EndSplineSet
EndChar

StartChar: quotedblright
Encoding: 8221 8221 287
Width: 627
Flags: MW
HStem: 692 542 990 244
VStem: -20 295 462 293
LayerCount: 2
Fore
SplineSet
143 1234 m 1
 269 1234 l 1
 269 1111 l 2
 269 1013 234 937 133 937 c 1
 133 982 l 1
 199 1003 204 1030 204 1114 c 1
 143 1114 l 1
 143 1234 l 1
369 1234 m 1
 495 1234 l 1
 495 1111 l 2
 495 1013 460 937 359 937 c 1
 359 982 l 1
 425 1003 430 1030 430 1114 c 1
 369 1114 l 1
 369 1234 l 1
EndSplineSet
EndChar

StartChar: quotedblbase
Encoding: 8222 8222 288
Width: 664
Flags: MW
HStem: -269 541 29 243
VStem: -173 293 399 295
LayerCount: 2
Fore
SplineSet
148 116 m 1
 274 116 l 1
 274 -6 l 2
 274 -104 240 -180 139 -180 c 1
 139 -136 l 1
 205 -114 210 -88 210 -4 c 1
 148 -4 l 1
 148 116 l 1
399 116 m 1
 525 116 l 1
 525 -6 l 2
 525 -104 490 -180 390 -180 c 1
 390 -136 l 1
 456 -114 460 -88 460 -4 c 1
 399 -4 l 1
 399 116 l 1
EndSplineSet
EndChar

StartChar: dagger
Encoding: 8224 8224 289
Width: 580
Flags: MW
HStem: 2 1208<269 309 269 269>
VStem: 243 92<499.5 637> 269 40<2 114.5 2 115.5>
LayerCount: 2
Fore
SplineSet
536 862 m 1xa0
 309 887 l 1xa0
 329 782 335 686 335 593 c 0xc0
 335 406 309 227 309 2 c 1
 269 2 l 1xa0
 269 229 243 404 243 590 c 0xc0
 243 684 249 780 269 887 c 1
 39 862 l 1
 39 941 l 1
 269 923 l 1
 236 1210 l 1
 342 1210 l 1
 309 923 l 1
 536 941 l 1
 536 862 l 1xa0
EndSplineSet
EndChar

StartChar: daggerdbl
Encoding: 8225 8225 290
Width: 639
Flags: MW
HStem: -24 1234<269 375 269 375>
VStem: 288 68<532.5 648 527 653.5>
LayerCount: 2
Fore
SplineSet
302 887 m 1
 72 862 l 1
 72 941 l 1
 302 923 l 1
 269 1210 l 1
 375 1210 l 1
 342 923 l 1
 569 941 l 1
 569 862 l 1
 342 887 l 1
 351 834 356 709 356 587 c 0
 356 467 351 349 342 299 c 1
 569 324 l 1
 569 245 l 1
 342 263 l 1
 375 -24 l 1
 269 -24 l 1
 302 263 l 1
 72 245 l 1
 72 324 l 1
 302 299 l 1
 292 350 288 472 288 593 c 0
 288 714 292 835 302 887 c 1
EndSplineSet
EndChar

StartChar: bullet
Encoding: 8226 8226 291
Width: 739
Flags: MW
HStem: 442 463<302 435.5>
VStem: 129 481<610 739>
LayerCount: 2
Fore
SplineSet
369 905 m 0
 502 905 610 804 610 674 c 0
 610 546 502 442 369 442 c 0
 235 442 129 546 129 674 c 0
 129 804 235 905 369 905 c 0
EndSplineSet
EndChar

StartChar: ellipsis
Encoding: 8230 8230 292
Width: 926
Flags: MW
HStem: 0 120<147 263 147 263 407 524 668 784>
VStem: 147 116<0 120 0 120> 407 117<0 120 0 120> 668 116<0 120 0 120>
CounterMasks: 1 70
LayerCount: 2
Fore
SplineSet
147 120 m 1
 263 120 l 1
 263 0 l 1
 147 0 l 1
 147 120 l 1
407 120 m 1
 524 120 l 1
 524 0 l 1
 407 0 l 1
 407 120 l 1
668 120 m 1
 784 120 l 1
 784 0 l 1
 668 0 l 1
 668 120 l 1
EndSplineSet
EndChar

StartChar: guilsinglleft
Encoding: 8249 8249 293
Width: 512
Flags: MW
HStem: 644 20G<76 76 184 184>
VStem: 76 320
LayerCount: 2
Fore
SplineSet
76 664 m 1
 348 1043 l 1
 396 1043 l 1
 184 664 l 1
 396 281 l 1
 348 281 l 1
 76 664 l 1
EndSplineSet
EndChar

StartChar: guilsinglright
Encoding: 8250 8250 294
Width: 512
Flags: MW
HStem: 644 20G<329 329 437 437>
VStem: 117 320
LayerCount: 2
Fore
SplineSet
165 1043 m 1
 437 664 l 1
 165 281 l 1
 117 281 l 1
 329 664 l 1
 117 1043 l 1
 165 1043 l 1
EndSplineSet
EndChar

StartChar: fraction
Encoding: 8260 8260 295
Width: 537
Flags: MW
HStem: -23 21G<43 43 43 118> 21 21G 1203 20G 1235 20G<415 486 486 486>
LayerCount: 2
Fore
SplineSet
43 -23 m 1
 415 1255 l 1
 486 1255 l 1
 118 -23 l 1
 43 -23 l 1
EndSplineSet
EndChar

StartChar: foursuperior
Encoding: 8308 8308 296
Width: 770
Flags: MW
HStem: 0 74 191 101 680 39 846 20G<412 504 504 504>
VStem: 340 128 431 68
LayerCount: 2
Fore
SplineSet
83 260 m 1xf8
 74 316 l 1
 412 866 l 1
 504 866 l 1
 504 323 l 1
 682 323 l 1
 682 260 l 1
 504 260 l 1
 504 61 l 1
 616 61 l 1
 616 0 l 1
 319 0 l 1
 319 61 l 1
 431 61 l 1
 431 260 l 1xf4
 83 260 l 1xf8
164 323 m 1
 431 323 l 1
 431 768 l 1
 340 616 254 476 164 323 c 1
EndSplineSet
EndChar

StartChar: Euro
Encoding: 8364 8364 297
Width: 1303
Flags: MW
HStem: -22 100 48 163 526 114 728 111 994 261 1190 78 1684 78
VStem: 178 84<603 640.5> 1147 75<1099 1237 1007 1237>
LayerCount: 2
Fore
SplineSet
901 794 m 1x7780
 901 732 l 1
 272 732 l 1
 265 696 262 660 262 622 c 0
 262 584 265 550 269 517 c 1
 901 517 l 1
 901 455 l 1
 280 455 l 1
 340 190 548 47 785 47 c 0
 913 47 1048 89 1175 174 c 1
 1209 110 l 1
 1076 23 925 -22 779 -22 c 0xb780
 507 -22 257 134 194 455 c 1
 10 455 l 1
 10 517 l 1
 184 517 l 1
 181 551 178 584 178 622 c 0
 178 659 181 696 187 732 c 1
 10 732 l 1
 10 794 l 1
 200 794 l 1
 273 1070 517 1255 771 1255 c 0
 901 1255 1033 1207 1147 1099 c 1
 1147 1237 l 1
 1222 1237 l 1
 1222 1007 l 1
 1160 994 l 1x7b80
 1042 1123 904 1178 772 1178 c 0
 555 1178 355 1025 286 794 c 1
 901 794 l 1x7780
EndSplineSet
EndChar

StartChar: trademark
Encoding: 8482 8482 298
Width: 1634
Flags: MW
HStem: 0 56 212 84 474 150 536 196 565 59 647 85
VStem: 92 209 97 92 129 58 169 69 264 115 342 48 452 94 537 61 598 174 625 91 660 38 1064 110
LayerCount: 2
Fore
SplineSet
90 1236 m 1
 642 1236 l 1
 642 1026 l 1
 585 1026 l 1
 585 1183 l 1
 393 1183 l 1
 393 660 l 1
 480 660 l 1
 480 612 l 1
 248 612 l 1
 248 660 l 1
 334 660 l 1
 334 1183 l 1
 146 1183 l 1
 146 1026 l 1
 90 1026 l 1
 90 1236 l 1
1144 638 m 1
 910 1115 l 1
 910 661 l 1
 990 661 l 1
 990 612 l 1
 774 612 l 1
 774 661 l 1
 853 661 l 1
 853 1187 l 1
 774 1187 l 1
 774 1236 l 1
 915 1236 l 1
 1144 760 l 1
 1218 916 1292 1080 1365 1236 c 1
 1506 1236 l 1
 1506 1187 l 1
 1428 1187 l 1
 1428 661 l 1
 1506 661 l 1
 1506 612 l 1
 1291 612 l 1
 1291 661 l 1
 1370 661 l 1
 1370 1114 l 1
 1144 638 l 1
EndSplineSet
EndChar

StartChar: partialdiff
Encoding: 8706 8706 299
Width: 887
Flags: MW
HStem: -23 72<341.5 545> 662 100 1230 78 1289 19
VStem: 131 570<278 697> 757 78
LayerCount: 2
Fore
SplineSet
131 354 m 0
 131 202 235 49 448 49 c 0
 658 49 758 194 758 344 c 0
 758 553 600 658 443 658 c 0
 287 658 131 556 131 354 c 0
276 1314 m 1
 343 1361 l 1
 701 697 l 1
 701 697 835 484 835 341 c 0
 835 128 642 -23 448 -23 c 0
 187 -23 49 168 49 371 c 0
 49 570 226 726 432 726 c 0
 496 726 563 710 628 678 c 1
 276 1314 l 1
EndSplineSet
EndChar

StartChar: Delta
Encoding: 8710 8710 300
Width: 760
Flags: MW
HStem: 0 61<110 649 110 699 63 649>
VStem: 63 47<61 61 61 67 61 67> 649 50<61 61>
LayerCount: 2
Fore
SplineSet
699 66 m 1
 699 0 l 1
 63 0 l 1
 63 67 l 1
 380 1062 l 1
 699 66 l 1
110 61 m 1
 649 61 l 1
 380 935 l 1
 110 61 l 1
EndSplineSet
EndChar

StartChar: minus
Encoding: 8722 8722 303
Width: 1233
Flags: MW
HStem: 872 87<125 1109 125 1109>
LayerCount: 2
Fore
SplineSet
125 959 m 1
 1109 959 l 1
 1109 872 l 1
 125 872 l 1
 125 959 l 1
EndSplineSet
EndChar

StartChar: radical
Encoding: 8730 8730 304
Width: 334
Flags: MW
HStem: -68 20<194 211 194 211>
VStem: 137 74
LayerCount: 2
Fore
SplineSet
175 133 m 1
 137 32 l 1
 158 32 l 1
 194 -48 l 1
 211 -48 l 1
 211 -68 l 1
 169 -68 l 1
 154 -10 l 1
 190 133 l 1
 175 133 l 1
EndSplineSet
EndChar

StartChar: infinity
Encoding: 8734 8734 305
Width: 1294
Flags: MW
HStem: 265 51<864 967 863.5 972.5> 270 50<322 425.5 322 434> 780 52<865.5 967.5> 785 51<318.5 427.5 309 428>
VStem: 135 68<487 606.5 487 628> 1092 68<479.5 614.5>
LayerCount: 2
Fore
SplineSet
1160 548 m 0xac
 1160 365 1033 265 912 265 c 0xac
 816 265 723 313 650 462 c 1
 576 325 481 270 387 270 c 0
 217 270 135 397 135 553 c 0
 135 703 231 836 387 836 c 0x5c
 468 836 577 782 647 644 c 1
 711 763 799 832 913 832 c 0
 1037 832 1160 738 1160 548 c 0xac
914 780 m 0
 817 780 745 702 673 548 c 1
 747 382 812 316 915 316 c 0
 1019 316 1092 409 1092 550 c 0
 1092 679 1021 780 914 780 c 0
381 320 m 0x5c
 470 320 546 390 621 553 c 1
 557 701 477 785 379 785 c 0
 258 785 203 661 203 552 c 0
 203 422 263 320 381 320 c 0x5c
EndSplineSet
EndChar

StartChar: integral
Encoding: 8747 8747 306
Width: 700
Flags: MW
HStem: -86 62<-11 16 -11 19> 1183 61<579.5 618 553.5 621> 1199 20G<715 715>
VStem: -27 742
LayerCount: 2
Fore
SplineSet
132 60 m 2xd0
 413 1078 l 2
 442 1182 506 1244 601 1244 c 0xd0
 635 1244 677 1236 715 1219 c 1xb0
 701 1165 l 1
 671 1176 637 1183 605 1183 c 0
 554 1183 513 1156 492 1080 c 2
 211 60 l 2
 171 -86 65 -86 -27 -86 c 1
 -11 -24 l 1
 43 -24 109 -24 132 60 c 2xd0
EndSplineSet
EndChar

StartChar: approxequal
Encoding: 8776 8776 307
Width: 811
Flags: MW
HStem: -102 112 62 90 97 112 262 90
LayerCount: 2
Fore
SplineSet
169 445 m 1
 131 445 l 1
 141 535 192 574 255 574 c 0
 370 574 468 527 556 527 c 0
 593 527 621 542 630 570 c 1
 667 570 l 1
 658 488 615 439 543 439 c 0
 415 439 319 486 228 486 c 0
 192 486 177 472 169 445 c 1
180 644 m 1
 142 644 l 1
 151 734 203 773 265 773 c 0
 381 773 479 726 567 726 c 0
 604 726 631 742 641 769 c 1
 678 769 l 1
 669 688 625 638 553 638 c 0
 426 638 330 685 239 685 c 0
 203 685 187 671 180 644 c 1
EndSplineSet
EndChar

StartChar: notequal
Encoding: 8800 8800 308
Width: 879
Flags: MW
HStem: 276 61<94 363 94 381 437 797 94 420> 613 64<94 453 94 468 522 797 94 510>
VStem: 94 703<276 337 276 337 613 677 276 677>
LayerCount: 2
Fore
SplineSet
94 677 m 1
 468 677 l 1
 517 868 l 1
 575 868 l 1
 522 677 l 1
 797 677 l 1
 797 613 l 1
 510 613 l 1
 437 337 l 1
 797 337 l 1
 797 276 l 1
 420 276 l 1
 373 84 l 1
 313 84 l 1
 363 276 l 1
 94 276 l 1
 94 337 l 1
 381 337 l 1
 453 613 l 1
 94 613 l 1
 94 677 l 1
EndSplineSet
EndChar

StartChar: lessequal
Encoding: 8804 8804 309
Width: 905
Flags: MW
HStem: 0 58<88 776 88 776>
VStem: 88 688<0 58 0 58 0 590 0 590>
LayerCount: 2
Fore
SplineSet
776 194 m 1
 88 553 l 1
 88 590 l 1
 776 952 l 1
 776 882 l 1
 194 571 l 1
 776 262 l 1
 776 194 l 1
88 0 m 1
 88 58 l 1
 776 58 l 1
 776 0 l 1
 88 0 l 1
EndSplineSet
EndChar

StartChar: greaterequal
Encoding: 8805 8805 310
Width: 903
Flags: MW
HStem: 0 58<133 821 133 821>
VStem: 133 688<0 58 0 58 0 262 0 262>
LayerCount: 2
Fore
SplineSet
821 553 m 1
 133 194 l 1
 133 262 l 1
 715 571 l 1
 133 882 l 1
 133 952 l 1
 821 590 l 1
 821 553 l 1
821 58 m 1
 821 0 l 1
 133 0 l 1
 133 58 l 1
 821 58 l 1
EndSplineSet
EndChar

StartChar: lozenge
Encoding: 9674 9674 311
Width: 907
Flags: MW
HStem: -23 1277<430 481 430 481>
VStem: 29 852<614 616>
LayerCount: 2
Fore
SplineSet
881 616 m 1
 481 -23 l 1
 430 -23 l 1
 29 614 l 1
 430 1254 l 1
 481 1254 l 1
 881 616 l 1
799 616 m 1
 458 1181 l 1
 115 616 l 1
 458 47 l 1
 799 616 l 1
EndSplineSet
EndChar

StartChar: fi
Encoding: 64257 64257 312
Width: 1133
Flags: MW
HStem: 0 0<104 104 529 529 672 672 1054 1054> 0 60<104 259 338 529 104 259 672 822 901 1054> 60 776<104 259 104 259 338 529 529 529 672 822 822 822 104 1054> 776 60<104 259 104 259 338 822> 1025 113 1158 97
VStem: 104 425<0 60 0 60> 259 79<60 776 60 776 836 970 970 972> 672 150<0 776 60 776> 672 229<0 836 60 836> 879 75
LayerCount: 2
Fore
SplineSet
822 776 m 1x6ea0
 338 776 l 1
 338 60 l 1x5da0
 529 60 l 1
 529 0 l 1
 104 0 l 1
 104 60 l 1x5ea0
 259 60 l 1
 259 776 l 1x5da0
 104 776 l 1
 104 836 l 1x9ea0
 259 836 l 1
 259 970 l 2
 259 1145 457 1248 636 1248 c 0
 765 1248 921 1199 921 1090 c 0
 921 1056 896 1025 859 1025 c 0
 817 1025 792 1054 792 1081 c 0
 792 1100 802 1120 820 1130 c 1
 775 1168 708 1186 638 1186 c 0
 495 1186 338 1109 338 972 c 2
 338 836 l 1
 901 836 l 1
 901 60 l 1xad40
 1054 60 l 1
 1054 0 l 1
 672 0 l 1
 672 60 l 1
 822 60 l 1
 822 776 l 1x6ea0
EndSplineSet
Ligature2: "'liga' Standard Ligatures in Greek lookup 1 subtable" f i
Ligature2: "'liga' Standard Ligatures lookup 0 subtable" f i
EndChar

StartChar: fl
Encoding: 64258 64258 313
Width: 1194
Flags: MW
HStem: 0 78 60 776<104 259 104 259 338 529 529 529 104 862 104 862 104 1125> 1123 0<862 862 942 942> 1158 97
VStem: 104 234<0 779 60 779 60 836 60 836> 529 0<0 0 60 60> 570 372 684 252
LayerCount: 2
Fore
SplineSet
862 60 m 1x7d
 862 1123 l 2
 862 1163 763 1190 651 1190 c 0
 505 1190 338 1123 338 965 c 2
 338 836 l 1
 541 836 l 1
 541 779 l 1
 338 779 l 1
 338 60 l 1
 529 60 l 1x7d
 529 0 l 1
 104 0 l 1xbd
 104 60 l 1
 259 60 l 1
 259 779 l 1
 104 779 l 1
 104 836 l 1
 259 836 l 1
 259 962 l 2
 259 1163 466 1253 652 1253 c 0
 804 1253 942 1210 942 1123 c 2
 942 60 l 1x7e
 1125 60 l 1x7d
 1125 0 l 1
 676 0 l 1xbd
 676 60 l 1
 862 60 l 1x7d
EndSplineSet
Ligature2: "'liga' Standard Ligatures in Greek lookup 1 subtable" f l
Ligature2: "'liga' Standard Ligatures lookup 0 subtable" f l
EndChar

StartChar: commaaccent
Encoding: 65538 -1 314
Width: 399
Flags: MW
HStem: -419 21G -97 289 941 21G<131 181.5> 1117 21G<140 202 140 140> 1217 20G<140 266 266 266>
VStem: 140 126<1117 1237 1065.5 1237> 202 64<1075 1115 1115 1117> 301 82
LayerCount: 2
Fore
SplineSet
140 1237 m 1xfd
 266 1237 l 1
 266 1115 l 2
 266 1016 232 941 131 941 c 1
 131 985 l 1
 197 1007 202 1033 202 1117 c 1xfb
 140 1117 l 1
 140 1237 l 1xfd
EndSplineSet
EndChar

StartChar: dotaccentcmb.cap
Encoding: 65542 -1 318
Width: 389
Flags: MW
HStem: 1001 120<133 250 133 250> 1140 210
VStem: 86 219 133 117<1001 1121 1001 1121>
LayerCount: 2
Fore
SplineSet
133 1121 m 1
 250 1121 l 1
 250 1001 l 1
 133 1001 l 1
 133 1121 l 1
EndSplineSet
EndChar

StartChar: dotlessj.001
Encoding: 65544 -1 320
Width: 391
Flags: MW
HStem: -440 153 -211 177<-57 158 21 158> 822 144 836 0<21 21 237 237> 1098 107
VStem: -57 215<-271 779 -211 779> 21 137<-34 836 -34 836> 158 79<-34 -22 -22 779 779 779>
LayerCount: 2
Fore
SplineSet
158 -34 m 2xea
 158 779 l 1
 21 779 l 1
 21 836 l 1xda
 237 836 l 1xd9
 237 -22 l 2xe9
 237 -143 237 -271 23 -271 c 2
 -57 -271 l 1
 -57 -211 l 1xec
 21 -211 l 2
 158 -211 158 -149 158 -34 c 2xea
EndSplineSet
EndChar

StartChar: Umacron
Encoding: 362 362 328
Width: 1421
Flags: MW
HStem: -22 100 1152 82 1456 65<515 906 515 906>
VStem: 284 60 1053 143
LayerCount: 2
Fore
SplineSet
1142 406 m 2
 1142 1171 l 1
 981 1171 l 1
 981 1234 l 1
 1384 1234 l 1
 1384 1171 l 1
 1224 1171 l 1
 1224 404 l 2
 1224 121 952 -23 682 -23 c 0
 422 -23 163 118 163 404 c 2
 163 1171 l 1
 2 1171 l 1
 2 1234 l 1
 405 1234 l 1
 405 1171 l 1
 244 1171 l 1
 244 406 l 2
 244 164 462 48 680 48 c 0
 910 48 1142 169 1142 406 c 2
515 1456 m 1x20
 515 1521 l 1
 906 1521 l 1
 906 1456 l 1
 515 1456 l 1x20
EndSplineSet
EndChar

StartChar: umacron
Encoding: 363 363 329
Width: 1102
Flags: MW
HStem: -22 77 -14 21G<351 514.5> 779 81 1058 65<355 746 355 746>
VStem: 71 202 590 252
LayerCount: 2
Fore
SplineSet
863 58 m 1xac
 1036 58 l 1
 1036 0 l 1
 796 0 l 1
 788 104 l 1
 655 25 577 -14 452 -14 c 0x6c
 250 -14 189 114 189 223 c 2
 189 776 l 1
 14 776 l 1
 14 836 l 1
 268 836 l 1
 268 239 l 2
 268 136 297 53 459 53 c 0
 589 53 682 110 784 173 c 1
 784 776 l 1
 610 776 l 1
 610 836 l 1
 863 836 l 1
 863 58 l 1xac
355 1058 m 1x10
 355 1123 l 1
 746 1123 l 1
 746 1058 l 1
 355 1058 l 1x10
EndSplineSet
EndChar

